<?xml version="1.0" encoding="UTF-8"?>
<svg id="Layer_1" data-name="Layer 1" xmlns="http://www.w3.org/2000/svg" xmlns:xlink="http://www.w3.org/1999/xlink" viewBox="0 0 565.5 499.5">
  <defs>
    <style>
      .cls-1, .cls-2, .cls-3 {
        fill: #ba4270;
      }

      .cls-4 {
        fill: url(#linear-gradient-4);
      }

      .cls-4, .cls-5, .cls-6, .cls-2, .cls-7, .cls-8, .cls-9, .cls-10, .cls-11, .cls-12, .cls-13, .cls-14 {
        fill-rule: evenodd;
      }

      .cls-4, .cls-15, .cls-9, .cls-10, .cls-11, .cls-12, .cls-3, .cls-13, .cls-16, .cls-17 {
        isolation: isolate;
      }

      .cls-4, .cls-13 {
        fill-opacity: .6;
        opacity: .6;
      }

      .cls-5, .cls-18 {
        fill: #36536b;
      }

      .cls-6 {
        fill: #edf3f8;
      }

      .cls-19 {
        fill: #fbfcfe;
      }

      .cls-8 {
        fill: #2e423c;
      }

      .cls-20, .cls-16, .cls-17 {
        fill: #fff;
      }

      .cls-9 {
        fill: url(#linear-gradient-5);
      }

      .cls-9, .cls-10, .cls-11, .cls-12 {
        opacity: .8;
      }

      .cls-10 {
        fill: url(#linear-gradient-2);
      }

      .cls-11 {
        fill: url(#linear-gradient-3);
      }

      .cls-12 {
        fill: url(#linear-gradient-6);
      }

      .cls-21 {
        fill: none;
        stroke: #ba4270;
        stroke-width: 3px;
      }

      .cls-3, .cls-16 {
        opacity: .2;
      }

      .cls-13 {
        fill: url(#linear-gradient);
      }

      .cls-14 {
        fill: #213648;
      }

      .cls-17 {
        opacity: .5;
      }
    </style>
    <linearGradient id="linear-gradient" x1="-3890.95" y1="360.903" x2="-3890.95" y2="361.903" gradientTransform="translate(944378.706 -4439.101) scale(242.6 12.3)" gradientUnits="userSpaceOnUse">
      <stop offset="0" stop-color="#454545"/>
      <stop offset=".2" stop-color="#999"/>
      <stop offset="1" stop-color="#fff"/>
    </linearGradient>
    <linearGradient id="linear-gradient-2" x1="-3624.196" y1="-13.98" x2="-3624.896" y2="-13.98" gradientTransform="translate(50128.5 6829.389) scale(13.7 470.7)" gradientUnits="userSpaceOnUse">
      <stop offset="0" stop-color="#fff" stop-opacity="0"/>
      <stop offset=".2" stop-color="#bababa"/>
      <stop offset=".5" stop-color="#fff" stop-opacity="0"/>
      <stop offset="1" stop-color="#fff" stop-opacity="0"/>
    </linearGradient>
    <linearGradient id="linear-gradient-3" x1="-4187.804" y1="-13.98" x2="-4188.504" y2="-13.98" gradientTransform="translate(-56967.799 6829.389) rotate(-180) scale(13.7 -470.7)" gradientUnits="userSpaceOnUse">
      <stop offset="0" stop-color="#fff" stop-opacity="0"/>
      <stop offset=".2" stop-color="#bababa"/>
      <stop offset=".5" stop-color="#fff" stop-opacity="0"/>
      <stop offset="1" stop-color="#fff" stop-opacity="0"/>
    </linearGradient>
    <linearGradient id="linear-gradient-4" x1="-3890.95" y1="360.903" x2="-3890.95" y2="361.903" gradientTransform="translate(944075.706 -4439.101) scale(242.6 12.3)" gradientUnits="userSpaceOnUse">
      <stop offset="0" stop-color="#454545"/>
      <stop offset=".2" stop-color="#999"/>
      <stop offset="1" stop-color="#fff"/>
    </linearGradient>
    <linearGradient id="linear-gradient-5" x1="-3624.196" y1="-13.98" x2="-3624.896" y2="-13.98" gradientTransform="translate(49825.5 6829.389) scale(13.7 470.7)" gradientUnits="userSpaceOnUse">
      <stop offset="0" stop-color="#fff" stop-opacity="0"/>
      <stop offset=".2" stop-color="#bababa"/>
      <stop offset=".5" stop-color="#fff" stop-opacity="0"/>
      <stop offset="1" stop-color="#fff" stop-opacity="0"/>
    </linearGradient>
    <linearGradient id="linear-gradient-6" x1="-4187.804" y1="-13.98" x2="-4188.504" y2="-13.98" gradientTransform="translate(-57270.799 6829.389) rotate(-180) scale(13.7 -470.7)" gradientUnits="userSpaceOnUse">
      <stop offset="0" stop-color="#fff" stop-opacity="0"/>
      <stop offset=".2" stop-color="#bababa"/>
      <stop offset=".5" stop-color="#fff" stop-opacity="0"/>
      <stop offset="1" stop-color="#fff" stop-opacity="0"/>
    </linearGradient>
  </defs>
  <g>
    <path id="b" class="cls-7" d="M338.8.6h191.2c18.3,0,33.2,14.2,33.2,31.8v435.3c0,17.6-14.9,31.8-33.2,31.8h-191.2c-18.3,0-33.2-14.2-33.2-31.8V32.4c0-17.6,14.9-31.8,33.2-31.8h0Z"/>
    <path id="b1" class="cls-14" d="M338.8.6h191.2c18.3,0,33.2,14.2,33.2,31.8v435.3c0,17.6-14.9,31.8-33.2,31.8h-191.2c-18.3,0-33.2-14.2-33.2-31.8V32.4c0-17.6,14.9-31.8,33.2-31.8h0Z"/>
  </g>
  <path class="cls-13" d="M530.7,0h-192.8c-9,.5-17.3,4.7-24.9,12.3,4.9-4.3,13.6-10,25.1-10h192.4c11.5,0,20.2,5.7,25.1,10-7.6-7.7-15.9-11.8-24.9-12.3h0Z"/>
  <path class="cls-10" d="M558,462.7V35c0-11.5-4.2-15.7-6.7-18.4-2.5-2.7-2.6-4.1,1-2.1,3.6,2.1,10.8,8,10.8,20.5v427.7c0,12.5-7.2,18.4-10.8,20.5s-3.5.7-1-2.1,6.7-7,6.7-18.4h0Z"/>
  <path class="cls-11" d="M310.7,462.7V35c0-11.5,4.2-15.7,6.7-18.4,2.5-2.7,2.6-4.1-1-2.1-3.6,2.1-10.8,8-10.8,20.5v427.7c0,12.5,7.2,18.4,10.8,20.5,3.6,2.1,3.5.7,1-2.1-2.5-2.7-6.7-7-6.7-18.4h0Z"/>
  <path class="cls-8" d="M305,101.6h1c1.1,0,2,.9,2,2v60.4c0,1.1-.9,2-2,2h-1c-1.1,0-2-.9-2-2v-60.3c0-1.1.9-2,2-2h0v-.1ZM562.5,154h1c1.1,0,2,.9,2,2v42.9c0,1.1-.9,2-2,2h-1c-1.1,0-2-.9-2-2v-42.9c0-1.1.9-2,2-2Z"/>
  <path id="f" class="cls-5" d="M411.7,12.4h-74.4c-11.1,0-19.2,7.6-19.2,17.4v422.4c0,12.9,12.5,24.3,26.6,24.3h179.3c13.6,0,26.6-11.5,26.6-24.3V31c0-11.8-8.8-18.5-19.2-18.6h-75.6c-.3,0-5.5,2.2-7.7,7.6-2.2,5.4-6.6,9.7-11.4,9.7h-5.6c-2.3,0-8.3-2.2-11.4-9.7-3.1-7.4-7.8-7.5-8.1-7.6h.1Z"/>
  <g>
    <g>
      <rect id="h" x="346" y="142" width="176" height="191" rx="5" ry="5"/>
      <rect id="h1" class="cls-19" x="346" y="142" width="176" height="191" rx="5" ry="5"/>
    </g>
    <g class="cls-15">
      <g class="cls-15">
        <g class="cls-15">
          <path class="cls-18" d="M379.203,258v-9.306h3.51c.618,0,1.09.029,1.416.089.457.076.84.221,1.148.435.31.214.558.514.746.898s.282.809.282,1.27c0,.791-.252,1.461-.755,2.009-.504.548-1.414.822-2.729.822h-2.387v3.783h-1.231ZM380.435,253.119h2.405c.796,0,1.36-.148,1.695-.445.334-.296.501-.713.501-1.25,0-.39-.098-.723-.295-1-.196-.277-.456-.46-.777-.549-.208-.055-.591-.082-1.149-.082h-2.38v3.326Z"/>
          <path class="cls-18" d="M392.127,257.168c-.424.36-.831.614-1.222.762-.392.148-.812.223-1.261.223-.74,0-1.31-.181-1.707-.543-.398-.361-.597-.824-.597-1.387,0-.33.075-.632.226-.904.149-.273.347-.492.59-.657s.518-.29.822-.374c.224-.06.562-.117,1.016-.172.922-.11,1.602-.241,2.037-.394.005-.156.007-.256.007-.298,0-.466-.108-.794-.324-.984-.292-.258-.726-.387-1.301-.387-.538,0-.935.094-1.19.282s-.445.521-.568.999l-1.117-.152c.102-.478.269-.864.502-1.158.232-.294.569-.521,1.009-.679.44-.159.95-.238,1.53-.238.575,0,1.043.067,1.402.203.36.136.624.306.794.511.169.205.287.465.355.777.038.195.057.547.057,1.055v1.523c0,1.062.024,1.733.073,2.015s.145.552.289.81h-1.193c-.119-.237-.195-.514-.229-.832ZM392.031,254.617c-.414.169-1.036.312-1.866.432-.47.067-.802.144-.996.229-.195.084-.345.208-.451.371-.105.163-.158.344-.158.543,0,.305.115.559.346.762s.568.305,1.013.305c.439,0,.831-.097,1.174-.289s.595-.456.756-.791c.122-.258.184-.639.184-1.143v-.418Z"/>
          <path class="cls-18" d="M394.907,260.596l-.127-1.072c.249.067.468.102.653.102.254,0,.457-.042.609-.127s.277-.203.375-.355c.071-.114.188-.397.349-.851.021-.063.056-.156.102-.279l-2.558-6.754h1.231l1.402,3.903c.183.496.345,1.016.489,1.562.131-.525.287-1.037.47-1.537l1.44-3.929h1.143l-2.564,6.855c-.274.74-.488,1.251-.641,1.53-.203.376-.437.652-.698.828-.263.176-.576.264-.939.264-.221,0-.466-.047-.736-.141Z"/>
          <path class="cls-18" d="M401.458,258v-6.741h1.021v.946c.212-.33.493-.596.845-.797.351-.201.751-.302,1.199-.302.5,0,.909.104,1.229.312.319.207.545.497.676.869.533-.787,1.228-1.181,2.082-1.181.669,0,1.183.186,1.543.556.359.37.539.94.539,1.711v4.627h-1.136v-4.246c0-.457-.037-.786-.111-.987s-.208-.363-.403-.485c-.194-.123-.423-.185-.686-.185-.474,0-.867.157-1.181.473-.312.315-.47.82-.47,1.515v3.916h-1.143v-4.38c0-.508-.093-.889-.279-1.143-.186-.254-.49-.381-.914-.381-.321,0-.619.085-.892.254-.273.169-.471.417-.594.743-.122.325-.184.795-.184,1.408v3.498h-1.143Z"/>
          <path class="cls-18" d="M416.901,255.829l1.181.146c-.186.69-.531,1.226-1.034,1.606-.504.381-1.147.571-1.93.571-.986,0-1.769-.304-2.346-.911-.578-.607-.866-1.459-.866-2.555,0-1.134.292-2.015.876-2.641s1.341-.939,2.272-.939c.901,0,1.638.307,2.209.921.571.613.856,1.477.856,2.59,0,.067-.002.169-.006.305h-5.027c.042.74.252,1.307.628,1.701.377.393.847.59,1.409.59.419,0,.776-.11,1.073-.33.296-.22.531-.571.704-1.054ZM413.15,253.982h3.764c-.051-.567-.194-.993-.432-1.276-.363-.44-.836-.66-1.415-.66-.525,0-.966.176-1.324.526-.357.352-.555.821-.593,1.41Z"/>
          <path class="cls-18" d="M419.517,258v-6.741h1.028v.958c.495-.74,1.211-1.11,2.146-1.11.406,0,.78.073,1.121.219.34.146.595.338.765.575.169.236.287.518.355.844.042.212.063.582.063,1.111v4.145h-1.143v-4.101c0-.466-.045-.813-.134-1.044s-.246-.415-.473-.553-.492-.206-.797-.206c-.486,0-.906.154-1.26.464-.354.309-.53.895-.53,1.758v3.682h-1.143Z"/>
          <path class="cls-18" d="M429.241,256.979l.165,1.009c-.321.067-.609.102-.863.102-.414,0-.736-.065-.965-.196-.229-.132-.389-.304-.482-.518-.093-.214-.14-.664-.14-1.35v-3.878h-.838v-.889h.838v-1.669l1.137-.686v2.354h1.148v.889h-1.148v3.942c0,.325.02.535.06.628.041.093.106.167.197.222.091.056.221.083.391.083.127,0,.294-.015.501-.044Z"/>
          <path class="cls-18" d="M433.545,254.629c0-1.248.348-2.173,1.041-2.773.58-.499,1.287-.749,2.12-.749.927,0,1.685.304,2.272.911.589.607.883,1.446.883,2.517,0,.867-.131,1.55-.391,2.047-.261.497-.639.884-1.137,1.159-.497.274-1.039.412-1.628.412-.943,0-1.706-.303-2.288-.908-.582-.604-.873-1.477-.873-2.615ZM434.72,254.629c0,.863.188,1.51.564,1.939.377.43.851.645,1.422.645.567,0,1.039-.216,1.416-.647.376-.432.564-1.09.564-1.974,0-.834-.189-1.466-.568-1.896-.378-.43-.849-.644-1.412-.644-.571,0-1.045.213-1.422.641-.376.428-.564,1.072-.564,1.936Z"/>
          <path class="cls-18" d="M441.474,258v-5.853h-1.01v-.889h1.01v-.718c0-.452.04-.789.12-1.009.11-.296.304-.536.581-.721.277-.184.665-.276,1.165-.276.321,0,.677.039,1.066.115l-.172.996c-.236-.042-.461-.063-.673-.063-.347,0-.592.074-.736.222-.144.148-.216.426-.216.832v.622h1.314v.889h-1.314v5.853h-1.136Z"/>
        </g>
      </g>
      <g class="cls-15">
        <g class="cls-15">
          <path class="cls-18" d="M451.804,256.623v-2.66c-.829-.237-1.438-.596-1.824-1.076-.388-.48-.581-1.062-.581-1.748,0-.694.219-1.277.657-1.749.438-.472,1.021-.744,1.748-.815v-.629h.921v.629c.673.08,1.208.31,1.605.688.398.379.652.886.762,1.521l-1.605.209c-.098-.499-.352-.838-.762-1.016v2.482c1.016.274,1.707.631,2.075,1.069.368.438.553.999.553,1.685,0,.767-.231,1.412-.695,1.937-.463.524-1.107.847-1.933.965v1.187h-.921v-1.154c-.731-.09-1.326-.362-1.783-.819s-.749-1.103-.876-1.937l1.656-.178c.068.339.195.631.381.877.187.245.394.423.622.533ZM451.804,249.957c-.249.085-.448.229-.597.432-.147.203-.222.428-.222.674,0,.224.067.433.203.625.135.192.341.348.615.467v-2.197ZM452.725,256.711c.317-.059.575-.206.774-.44.198-.235.298-.511.298-.829,0-.283-.083-.527-.25-.732-.168-.205-.441-.363-.822-.473v2.475Z"/>
          <path class="cls-18" d="M456.521,255.848l1.727-.189c.042.351.152.611.33.78s.412.254.704.254c.368,0,.682-.169.939-.508.259-.339.424-1.041.495-2.107-.448.521-1.009.78-1.682.78-.732,0-1.364-.282-1.896-.847-.53-.565-.796-1.301-.796-2.206,0-.943.28-1.704.841-2.282.561-.577,1.274-.866,2.143-.866.943,0,1.718.365,2.323,1.095.604.73.907,1.931.907,3.603,0,1.701-.315,2.929-.945,3.682-.631.753-1.452,1.13-2.463,1.13-.729,0-1.316-.193-1.765-.581-.449-.387-.736-.966-.863-1.736ZM460.558,251.951c0-.576-.133-1.022-.397-1.34-.264-.317-.569-.477-.917-.477-.33,0-.604.131-.822.391-.218.261-.326.687-.326,1.279,0,.601.118,1.042.355,1.323.236.281.533.423.889.423.343,0,.631-.136.866-.406.234-.271.353-.669.353-1.193Z"/>
          <path class="cls-18" d="M469.736,256.344v1.656h-6.253c.068-.626.271-1.22.609-1.78.339-.561,1.008-1.305,2.006-2.231.805-.749,1.297-1.257,1.479-1.523.245-.368.368-.732.368-1.092,0-.397-.107-.703-.32-.917-.214-.214-.51-.321-.886-.321-.373,0-.669.112-.889.337-.221.225-.348.597-.381,1.117l-1.777-.178c.105-.981.438-1.687.996-2.114.559-.427,1.257-.641,2.095-.641.919,0,1.64.248,2.165.742.524.496.787,1.111.787,1.848,0,.419-.075.817-.226,1.196s-.389.775-.714,1.19c-.216.275-.605.671-1.168,1.188-.563.516-.92.858-1.069,1.027-.15.17-.272.335-.365.496h3.542Z"/>
          <path class="cls-18" d="M473.957,248.656c.901,0,1.606.321,2.114.965.604.762.907,2.025.907,3.789s-.305,3.026-.914,3.797c-.503.635-1.206.951-2.107.951s-1.636-.348-2.189-1.044c-.555-.696-.832-1.937-.832-3.723,0-1.752.305-3.013.914-3.783.504-.635,1.206-.952,2.107-.952ZM473.957,250.135c-.216,0-.408.069-.577.207-.17.138-.301.384-.394.739-.123.461-.185,1.237-.185,2.329s.056,1.843.165,2.251c.11.408.249.68.416.815s.358.203.574.203.408-.068.578-.206c.169-.138.3-.384.394-.739.122-.457.184-1.232.184-2.324s-.055-1.842-.165-2.25c-.109-.408-.248-.681-.416-.818-.167-.138-.358-.207-.574-.207Z"/>
          <path class="cls-18" d="M481.67,258v-1.873h-3.809v-1.561l4.037-5.91h1.498v5.903h1.155v1.567h-1.155v1.873h-1.727ZM481.67,254.56v-3.181l-2.14,3.181h2.14Z"/>
        </g>
      </g>
      <g class="cls-15">
        <g class="cls-15">
          <path class="cls-18" d="M384.563,268.008v-1.313h1.143v1.313h-1.143ZM384.563,276v-6.741h1.143v6.741h-1.143Z"/>
          <path class="cls-18" d="M386.988,273.988l1.13-.178c.063.452.24.799.529,1.041.29.24.695.361,1.216.361.525,0,.914-.106,1.168-.32s.381-.465.381-.752c0-.259-.112-.462-.336-.609-.157-.102-.546-.231-1.168-.388-.838-.212-1.419-.395-1.743-.549-.323-.154-.568-.368-.736-.642-.167-.272-.25-.574-.25-.904,0-.301.068-.579.206-.835s.325-.469.562-.638c.178-.131.42-.242.727-.333.308-.091.637-.137.987-.137.529,0,.993.076,1.394.229.399.152.695.358.886.619.19.26.321.608.394,1.044l-1.117.152c-.051-.347-.198-.618-.441-.812s-.587-.292-1.031-.292c-.525,0-.899.087-1.124.261-.224.173-.336.376-.336.609,0,.147.046.281.14.399.093.123.239.225.438.305.114.042.451.14,1.01.292.808.216,1.372.393,1.691.53s.57.337.752.6c.183.263.273.588.273.978,0,.381-.111.739-.334,1.076-.222.336-.542.597-.961.78-.419.185-.894.276-1.422.276-.876,0-1.544-.182-2.003-.546s-.752-.903-.879-1.618Z"/>
          <path class="cls-18" d="M401.956,273.531l1.123.146c-.122.774-.437,1.381-.942,1.818-.506.438-1.127.657-1.863.657-.922,0-1.664-.302-2.225-.904-.561-.604-.841-1.468-.841-2.594,0-.728.12-1.364.361-1.91s.608-.955,1.102-1.229c.493-.272,1.029-.409,1.609-.409.731,0,1.331.186,1.796.556.466.37.764.896.896,1.577l-1.111.171c-.105-.452-.293-.793-.562-1.021s-.594-.343-.975-.343c-.575,0-1.043.206-1.402.619-.36.412-.54,1.065-.54,1.958,0,.905.174,1.563.521,1.975.348.41.8.615,1.358.615.449,0,.823-.138,1.124-.412.3-.275.49-.699.571-1.27Z"/>
          <path class="cls-18" d="M403.632,272.629c0-1.248.347-2.173,1.041-2.773.579-.499,1.286-.749,2.12-.749.927,0,1.684.304,2.272.911.588.607.882,1.446.882,2.517,0,.867-.13,1.55-.39,2.047-.261.497-.64.884-1.137,1.159-.497.274-1.04.412-1.628.412-.944,0-1.707-.303-2.288-.908-.582-.604-.873-1.477-.873-2.615ZM404.806,272.629c0,.863.188,1.51.565,1.939.376.43.851.645,1.422.645.566,0,1.039-.216,1.415-.647.377-.432.565-1.09.565-1.974,0-.834-.189-1.466-.568-1.896s-.85-.644-1.412-.644c-.571,0-1.046.213-1.422.641-.377.428-.565,1.072-.565,1.936Z"/>
          <path class="cls-18" d="M411.287,276v-6.741h1.021v.946c.212-.33.493-.596.845-.797.351-.201.751-.302,1.199-.302.5,0,.909.104,1.229.312.319.207.545.497.676.869.533-.787,1.228-1.181,2.082-1.181.669,0,1.183.186,1.543.556.359.37.539.94.539,1.711v4.627h-1.136v-4.246c0-.457-.037-.786-.111-.987s-.208-.363-.403-.485c-.194-.123-.423-.185-.686-.185-.474,0-.867.157-1.181.473-.312.315-.47.82-.47,1.515v3.916h-1.143v-4.38c0-.508-.093-.889-.279-1.143-.186-.254-.49-.381-.914-.381-.321,0-.619.085-.892.254-.273.169-.471.417-.594.743-.122.325-.184.795-.184,1.408v3.498h-1.143Z"/>
          <path class="cls-18" d="M422.116,278.584v-9.325h1.041v.876c.245-.343.522-.6.831-.771.31-.171.684-.257,1.124-.257.575,0,1.083.148,1.523.444.439.296.772.714.996,1.254.225.539.337,1.131.337,1.773,0,.69-.124,1.312-.372,1.863-.247.553-.606.976-1.079,1.27-.472.294-.968.441-1.488.441-.381,0-.723-.08-1.025-.241-.302-.161-.551-.364-.745-.609v3.282h-1.143ZM423.15,272.668c0,.867.176,1.508.527,1.923.351.415.776.622,1.275.622.508,0,.942-.215,1.305-.645.361-.43.543-1.095.543-1.996,0-.859-.177-1.502-.53-1.93s-.775-.641-1.267-.641c-.486,0-.917.227-1.292.682-.374.455-.562,1.116-.562,1.984Z"/>
          <path class="cls-18" d="M429.32,276v-9.306h1.143v9.306h-1.143Z"/>
          <path class="cls-18" d="M436.849,273.829l1.181.146c-.186.69-.531,1.226-1.034,1.606-.504.381-1.147.571-1.93.571-.986,0-1.769-.304-2.346-.911-.578-.607-.866-1.459-.866-2.555,0-1.134.292-2.015.876-2.641s1.341-.939,2.272-.939c.901,0,1.638.307,2.209.921.571.613.856,1.477.856,2.59,0,.067-.002.169-.006.305h-5.027c.042.74.252,1.307.628,1.701.377.393.847.59,1.409.59.419,0,.776-.11,1.073-.33.296-.22.531-.571.704-1.054ZM433.098,271.982h3.764c-.051-.567-.194-.993-.432-1.276-.363-.44-.836-.66-1.415-.66-.525,0-.966.176-1.324.526-.357.352-.555.821-.593,1.41Z"/>
          <path class="cls-18" d="M441.959,274.979l.165,1.009c-.322.067-.609.102-.863.102-.415,0-.736-.065-.965-.196-.229-.132-.39-.304-.482-.518-.094-.214-.14-.664-.14-1.35v-3.878h-.838v-.889h.838v-1.669l1.136-.686v2.354h1.149v.889h-1.149v3.942c0,.325.021.535.061.628s.105.167.197.222c.091.056.221.083.39.083.127,0,.294-.015.502-.044Z"/>
          <path class="cls-18" d="M447.69,273.829l1.181.146c-.186.69-.531,1.226-1.034,1.606-.504.381-1.147.571-1.93.571-.986,0-1.769-.304-2.346-.911-.578-.607-.866-1.459-.866-2.555,0-1.134.292-2.015.876-2.641s1.341-.939,2.272-.939c.901,0,1.638.307,2.209.921.571.613.856,1.477.856,2.59,0,.067-.002.169-.006.305h-5.027c.042.74.252,1.307.628,1.701.377.393.847.59,1.409.59.419,0,.776-.11,1.073-.33.296-.22.531-.571.704-1.054ZM443.939,271.982h3.764c-.051-.567-.194-.993-.432-1.276-.363-.44-.836-.66-1.415-.66-.525,0-.966.176-1.324.526-.357.352-.555.821-.593,1.41Z"/>
          <path class="cls-18" d="M454.68,276v-.851c-.428.669-1.056,1.003-1.886,1.003-.537,0-1.031-.148-1.481-.444-.451-.296-.8-.71-1.048-1.241-.247-.531-.371-1.142-.371-1.831,0-.673.112-1.283.336-1.831.225-.548.561-.969,1.01-1.26.448-.293.95-.438,1.504-.438.406,0,.769.086,1.086.257.317.172.575.395.774.67v-3.339h1.136v9.306h-1.06ZM451.067,272.636c0,.863.183,1.509.546,1.937.364.427.794.641,1.289.641.499,0,.924-.204,1.272-.612.35-.408.523-1.032.523-1.87,0-.922-.178-1.6-.533-2.031s-.793-.646-1.313-.646c-.508,0-.933.207-1.272.621-.341.415-.512,1.069-.512,1.962Z"/>
          <path class="cls-18" d="M465.547,275.168c-.424.36-.831.614-1.222.762-.392.148-.812.223-1.261.223-.74,0-1.31-.181-1.707-.543-.398-.361-.597-.824-.597-1.387,0-.33.075-.632.226-.904.149-.273.347-.492.59-.657s.518-.29.822-.374c.224-.06.562-.117,1.016-.172.922-.11,1.602-.241,2.037-.394.005-.156.007-.256.007-.298,0-.466-.108-.794-.324-.984-.292-.258-.726-.387-1.301-.387-.538,0-.935.094-1.19.282s-.445.521-.568.999l-1.117-.152c.102-.478.269-.864.502-1.158.232-.294.569-.521,1.009-.679.44-.159.95-.238,1.53-.238.575,0,1.043.067,1.402.203.36.136.624.306.794.511.169.205.287.465.355.777.038.195.057.547.057,1.055v1.523c0,1.062.024,1.733.073,2.015s.145.552.289.81h-1.193c-.119-.237-.195-.514-.229-.832ZM465.451,272.617c-.414.169-1.036.312-1.866.432-.47.067-.802.144-.996.229-.195.084-.345.208-.451.371-.105.163-.158.344-.158.543,0,.305.115.559.346.762s.568.305,1.013.305c.439,0,.831-.097,1.174-.289s.595-.456.756-.791c.122-.258.184-.639.184-1.143v-.418Z"/>
          <path class="cls-18" d="M468.378,276v-6.741h1.028v.958c.495-.74,1.21-1.11,2.146-1.11.406,0,.779.073,1.12.219.341.146.596.338.765.575.17.236.288.518.355.844.043.212.063.582.063,1.111v4.145h-1.143v-4.101c0-.466-.044-.813-.133-1.044s-.247-.415-.474-.553c-.226-.138-.491-.206-.796-.206-.487,0-.907.154-1.261.464-.353.309-.529.895-.529,1.758v3.682h-1.143Z"/>
          <path class="cls-18" d="M479.981,276v-.851c-.428.669-1.056,1.003-1.886,1.003-.537,0-1.031-.148-1.481-.444-.451-.296-.8-.71-1.048-1.241-.247-.531-.371-1.142-.371-1.831,0-.673.112-1.283.336-1.831.225-.548.561-.969,1.01-1.26.448-.293.95-.438,1.504-.438.406,0,.769.086,1.086.257.317.172.575.395.774.67v-3.339h1.136v9.306h-1.06ZM476.369,272.636c0,.863.183,1.509.546,1.937.364.427.794.641,1.289.641.499,0,.924-.204,1.272-.612.35-.408.523-1.032.523-1.87,0-.922-.178-1.6-.533-2.031s-.793-.646-1.313-.646c-.508,0-.933.207-1.272.621-.341.415-.512,1.069-.512,1.962Z"/>
        </g>
      </g>
      <g class="cls-15">
        <g class="cls-15">
          <path class="cls-18" d="M365.557,296.584v-9.325h1.041v.876c.246-.343.522-.6.832-.771.309-.171.684-.257,1.123-.257.576,0,1.084.148,1.523.444.44.296.772.714.997,1.254.224.539.336,1.131.336,1.773,0,.69-.123,1.312-.371,1.863-.247.553-.607.976-1.079,1.27s-.968.441-1.488.441c-.381,0-.723-.08-1.025-.241s-.551-.364-.746-.609v3.282h-1.143ZM366.592,290.668c0,.867.176,1.508.526,1.923.352.415.776.622,1.276.622.508,0,.942-.215,1.305-.645.361-.43.542-1.095.542-1.996,0-.859-.177-1.502-.529-1.93-.354-.428-.776-.641-1.267-.641-.487,0-.917.227-1.292.682-.374.455-.562,1.116-.562,1.984Z"/>
          <path class="cls-18" d="M372.774,294v-6.741h1.028v1.022c.262-.479.504-.794.727-.946.222-.152.467-.229.733-.229.385,0,.776.123,1.174.368l-.394,1.061c-.279-.166-.559-.248-.838-.248-.249,0-.474.075-.673.226-.198.15-.341.358-.425.625-.127.406-.19.851-.19,1.333v3.529h-1.143Z"/>
          <path class="cls-18" d="M376.69,290.629c0-1.248.348-2.173,1.041-2.773.58-.499,1.287-.749,2.12-.749.927,0,1.685.304,2.272.911.589.607.883,1.446.883,2.517,0,.867-.131,1.55-.391,2.047-.261.497-.639.884-1.137,1.159-.497.274-1.039.412-1.628.412-.943,0-1.706-.303-2.288-.908-.582-.604-.873-1.477-.873-2.615ZM377.865,290.629c0,.863.188,1.51.564,1.939.377.43.851.645,1.422.645.567,0,1.039-.216,1.416-.647.376-.432.564-1.09.564-1.974,0-.834-.189-1.466-.568-1.896-.378-.43-.849-.644-1.412-.644-.571,0-1.045.213-1.422.641-.376.428-.564,1.072-.564,1.936Z"/>
          <path class="cls-18" d="M388.745,291.531l1.123.146c-.122.774-.437,1.381-.942,1.818-.506.438-1.127.657-1.863.657-.922,0-1.664-.302-2.225-.904-.561-.604-.841-1.468-.841-2.594,0-.728.12-1.364.361-1.91s.608-.955,1.102-1.229c.493-.272,1.029-.409,1.609-.409.731,0,1.331.186,1.796.556.466.37.764.896.896,1.577l-1.111.171c-.105-.452-.293-.793-.562-1.021s-.594-.343-.975-.343c-.575,0-1.043.206-1.402.619-.36.412-.54,1.065-.54,1.958,0,.905.174,1.563.521,1.975.348.41.8.615,1.358.615.449,0,.823-.138,1.124-.412.3-.275.49-.699.571-1.27Z"/>
          <path class="cls-18" d="M395.461,291.829l1.181.146c-.187.69-.531,1.226-1.035,1.606-.503.381-1.146.571-1.93.571-.985,0-1.768-.304-2.345-.911-.578-.607-.867-1.459-.867-2.555,0-1.134.292-2.015.876-2.641s1.342-.939,2.272-.939c.901,0,1.638.307,2.209.921.571.613.857,1.477.857,2.59,0,.067-.002.169-.007.305h-5.027c.043.74.252,1.307.629,1.701.376.393.846.59,1.409.59.419,0,.776-.11,1.072-.33.297-.22.531-.571.705-1.054ZM391.709,289.982h3.765c-.051-.567-.195-.993-.432-1.276-.364-.44-.836-.66-1.416-.66-.524,0-.966.176-1.323.526-.357.352-.556.821-.594,1.41Z"/>
          <path class="cls-18" d="M397.619,291.988l1.13-.178c.063.452.24.799.529,1.041.29.24.695.361,1.216.361.525,0,.914-.106,1.168-.32s.381-.465.381-.752c0-.259-.112-.462-.336-.609-.157-.102-.546-.231-1.168-.388-.838-.212-1.419-.395-1.743-.549-.323-.154-.568-.368-.736-.642-.167-.272-.25-.574-.25-.904,0-.301.068-.579.206-.835s.325-.469.562-.638c.178-.131.42-.242.727-.333.308-.091.637-.137.987-.137.529,0,.993.076,1.394.229.399.152.695.358.886.619.19.26.321.608.394,1.044l-1.117.152c-.051-.347-.198-.618-.441-.812s-.587-.292-1.031-.292c-.525,0-.899.087-1.124.261-.224.173-.336.376-.336.609,0,.147.046.281.14.399.093.123.239.225.438.305.114.042.451.14,1.01.292.808.216,1.372.393,1.691.53s.57.337.752.6c.183.263.273.588.273.978,0,.381-.111.739-.334,1.076-.222.336-.542.597-.961.78-.419.185-.894.276-1.422.276-.876,0-1.544-.182-2.003-.546s-.752-.903-.879-1.618Z"/>
          <path class="cls-18" d="M404.119,291.988l1.13-.178c.063.452.24.799.529,1.041.29.24.695.361,1.216.361.525,0,.914-.106,1.168-.32s.381-.465.381-.752c0-.259-.112-.462-.336-.609-.157-.102-.546-.231-1.168-.388-.838-.212-1.419-.395-1.743-.549-.323-.154-.568-.368-.736-.642-.167-.272-.25-.574-.25-.904,0-.301.068-.579.206-.835s.325-.469.562-.638c.178-.131.42-.242.727-.333.308-.091.637-.137.987-.137.529,0,.993.076,1.394.229.399.152.695.358.886.619.19.26.321.608.394,1.044l-1.117.152c-.051-.347-.198-.618-.441-.812s-.587-.292-1.031-.292c-.525,0-.899.087-1.124.261-.224.173-.336.376-.336.609,0,.147.046.281.14.399.093.123.239.225.438.305.114.042.451.14,1.01.292.808.216,1.372.393,1.691.53s.57.337.752.6c.183.263.273.588.273.978,0,.381-.111.739-.334,1.076-.222.336-.542.597-.961.78-.419.185-.894.276-1.422.276-.876,0-1.544-.182-2.003-.546s-.752-.903-.879-1.618Z"/>
          <path class="cls-18" d="M415.69,291.829l1.181.146c-.186.69-.531,1.226-1.034,1.606-.504.381-1.147.571-1.93.571-.986,0-1.769-.304-2.346-.911-.578-.607-.866-1.459-.866-2.555,0-1.134.292-2.015.876-2.641s1.341-.939,2.272-.939c.901,0,1.638.307,2.209.921.571.613.856,1.477.856,2.59,0,.067-.002.169-.006.305h-5.027c.042.74.252,1.307.628,1.701.377.393.847.59,1.409.59.419,0,.776-.11,1.073-.33.296-.22.531-.571.704-1.054ZM411.939,289.982h3.764c-.051-.567-.194-.993-.432-1.276-.363-.44-.836-.66-1.415-.66-.525,0-.966.176-1.324.526-.357.352-.555.821-.593,1.41Z"/>
          <path class="cls-18" d="M422.68,294v-.851c-.428.669-1.056,1.003-1.886,1.003-.537,0-1.031-.148-1.481-.444-.451-.296-.8-.71-1.048-1.241-.247-.531-.371-1.142-.371-1.831,0-.673.112-1.283.336-1.831.225-.548.561-.969,1.01-1.26.448-.293.95-.438,1.504-.438.406,0,.769.086,1.086.257.317.172.575.395.774.67v-3.339h1.136v9.306h-1.06ZM419.067,290.636c0,.863.183,1.509.546,1.937.364.427.794.641,1.289.641.499,0,.924-.204,1.272-.612.35-.408.523-1.032.523-1.87,0-.922-.178-1.6-.533-2.031s-.793-.646-1.313-.646c-.508,0-.933.207-1.272.621-.341.415-.512,1.069-.512,1.962Z"/>
          <path class="cls-18" d="M428.69,291.988l1.13-.178c.063.452.24.799.53,1.041.29.24.695.361,1.216.361.524,0,.914-.106,1.168-.32s.381-.465.381-.752c0-.259-.112-.462-.337-.609-.156-.102-.546-.231-1.168-.388-.838-.212-1.418-.395-1.742-.549-.323-.154-.569-.368-.736-.642-.167-.272-.251-.574-.251-.904,0-.301.069-.579.207-.835.137-.256.324-.469.562-.638.178-.131.42-.242.727-.333s.636-.137.987-.137c.528,0,.993.076,1.394.229.399.152.694.358.885.619.19.26.322.608.394,1.044l-1.117.152c-.051-.347-.197-.618-.44-.812-.244-.194-.588-.292-1.032-.292-.524,0-.899.087-1.123.261-.225.173-.337.376-.337.609,0,.147.047.281.14.399.094.123.239.225.438.305.114.042.45.14,1.009.292.809.216,1.372.393,1.692.53.319.138.569.337.752.6.182.263.272.588.272.978,0,.381-.11.739-.333,1.076-.222.336-.543.597-.962.78-.419.185-.893.276-1.422.276-.876,0-1.543-.182-2.002-.546-.46-.364-.753-.903-.88-1.618Z"/>
          <path class="cls-18" d="M440.065,294v-.99c-.524.762-1.237,1.143-2.139,1.143-.398,0-.77-.076-1.114-.229s-.601-.344-.768-.574c-.168-.23-.285-.514-.353-.848-.047-.225-.07-.58-.07-1.066v-4.177h1.143v3.739c0,.596.023.998.07,1.205.071.301.224.537.457.708.232.172.521.257.863.257s.664-.087.965-.263c.3-.176.513-.415.638-.718s.188-.741.188-1.316v-3.612h1.143v6.741h-1.022Z"/>
          <path class="cls-18" d="M447.276,291.531l1.124.146c-.123.774-.438,1.381-.943,1.818-.505.438-1.126.657-1.862.657-.923,0-1.664-.302-2.226-.904-.561-.604-.841-1.468-.841-2.594,0-.728.121-1.364.362-1.91s.608-.955,1.101-1.229c.493-.272,1.03-.409,1.609-.409.732,0,1.331.186,1.797.556.465.37.764.896.895,1.577l-1.11.171c-.106-.452-.293-.793-.562-1.021-.269-.229-.593-.343-.974-.343-.576,0-1.043.206-1.403.619-.359.412-.539,1.065-.539,1.958,0,.905.173,1.563.521,1.975.347.41.8.615,1.358.615.448,0,.823-.138,1.123-.412.301-.275.491-.699.571-1.27Z"/>
          <path class="cls-18" d="M453.776,291.531l1.124.146c-.123.774-.438,1.381-.943,1.818-.505.438-1.126.657-1.862.657-.923,0-1.664-.302-2.226-.904-.561-.604-.841-1.468-.841-2.594,0-.728.121-1.364.362-1.91s.608-.955,1.101-1.229c.493-.272,1.03-.409,1.609-.409.732,0,1.331.186,1.797.556.465.37.764.896.895,1.577l-1.11.171c-.106-.452-.293-.793-.562-1.021-.269-.229-.593-.343-.974-.343-.576,0-1.043.206-1.403.619-.359.412-.539,1.065-.539,1.958,0,.905.173,1.563.521,1.975.347.41.8.615,1.358.615.448,0,.823-.138,1.123-.412.301-.275.491-.699.571-1.27Z"/>
          <path class="cls-18" d="M460.492,291.829l1.181.146c-.186.69-.531,1.226-1.034,1.606-.504.381-1.147.571-1.93.571-.986,0-1.769-.304-2.346-.911-.578-.607-.866-1.459-.866-2.555,0-1.134.292-2.015.876-2.641s1.341-.939,2.272-.939c.901,0,1.638.307,2.209.921.571.613.856,1.477.856,2.59,0,.067-.002.169-.006.305h-5.027c.042.74.252,1.307.628,1.701.377.393.847.59,1.409.59.419,0,.776-.11,1.073-.33.296-.22.531-.571.704-1.054ZM456.741,289.982h3.764c-.051-.567-.194-.993-.432-1.276-.363-.44-.836-.66-1.415-.66-.525,0-.966.176-1.324.526-.357.352-.555.821-.593,1.41Z"/>
          <path class="cls-18" d="M462.65,291.988l1.13-.178c.063.452.24.799.53,1.041.29.24.695.361,1.216.361.524,0,.914-.106,1.168-.32s.381-.465.381-.752c0-.259-.112-.462-.337-.609-.156-.102-.546-.231-1.168-.388-.838-.212-1.418-.395-1.742-.549-.323-.154-.569-.368-.736-.642-.167-.272-.251-.574-.251-.904,0-.301.069-.579.207-.835.137-.256.324-.469.562-.638.178-.131.42-.242.727-.333s.636-.137.987-.137c.528,0,.993.076,1.394.229.399.152.694.358.885.619.19.26.322.608.394,1.044l-1.117.152c-.051-.347-.197-.618-.44-.812-.244-.194-.588-.292-1.032-.292-.524,0-.899.087-1.123.261-.225.173-.337.376-.337.609,0,.147.047.281.14.399.094.123.239.225.438.305.114.042.45.14,1.009.292.809.216,1.372.393,1.692.53.319.138.569.337.752.6.182.263.272.588.272.978,0,.381-.11.739-.333,1.076-.222.336-.543.597-.962.78-.419.185-.893.276-1.422.276-.876,0-1.543-.182-2.002-.546-.46-.364-.753-.903-.88-1.618Z"/>
          <path class="cls-18" d="M469.15,291.988l1.13-.178c.063.452.24.799.53,1.041.29.24.695.361,1.216.361.524,0,.914-.106,1.168-.32s.381-.465.381-.752c0-.259-.112-.462-.337-.609-.156-.102-.546-.231-1.168-.388-.838-.212-1.418-.395-1.742-.549-.323-.154-.569-.368-.736-.642-.167-.272-.251-.574-.251-.904,0-.301.069-.579.207-.835.137-.256.324-.469.562-.638.178-.131.42-.242.727-.333s.636-.137.987-.137c.528,0,.993.076,1.394.229.399.152.694.358.885.619.19.26.322.608.394,1.044l-1.117.152c-.051-.347-.197-.618-.44-.812-.244-.194-.588-.292-1.032-.292-.524,0-.899.087-1.123.261-.225.173-.337.376-.337.609,0,.147.047.281.14.399.094.123.239.225.438.305.114.042.45.14,1.009.292.809.216,1.372.393,1.692.53.319.138.569.337.752.6.182.263.272.588.272.978,0,.381-.11.739-.333,1.076-.222.336-.543.597-.962.78-.419.185-.893.276-1.422.276-.876,0-1.543-.182-2.002-.546-.46-.364-.753-.903-.88-1.618Z"/>
          <path class="cls-18" d="M476.381,294v-5.853h-1.01v-.889h1.01v-.718c0-.452.04-.789.12-1.009.11-.296.304-.536.581-.721.277-.184.665-.276,1.165-.276.321,0,.677.039,1.066.115l-.172.996c-.236-.042-.461-.063-.673-.063-.347,0-.592.074-.736.222-.144.148-.216.426-.216.832v.622h1.314v.889h-1.314v5.853h-1.136Z"/>
          <path class="cls-18" d="M484.138,294v-.99c-.525.762-1.238,1.143-2.14,1.143-.397,0-.769-.076-1.114-.229-.345-.152-.601-.344-.768-.574s-.284-.514-.353-.848c-.046-.225-.069-.58-.069-1.066v-4.177h1.143v3.739c0,.596.023.998.069,1.205.072.301.225.537.457.708.233.172.521.257.863.257s.665-.087.965-.263c.301-.176.514-.415.638-.718.125-.303.188-.741.188-1.316v-3.612h1.143v6.741h-1.021Z"/>
          <path class="cls-18" d="M486.924,294v-9.306h1.143v9.306h-1.143Z"/>
          <path class="cls-18" d="M489.812,294v-9.306h1.143v9.306h-1.143Z"/>
          <path class="cls-18" d="M492.675,296.596l-.127-1.072c.25.067.468.102.654.102.254,0,.457-.042.609-.127s.277-.203.374-.355c.072-.114.188-.397.35-.851.021-.063.055-.156.102-.279l-2.559-6.754h1.231l1.403,3.903c.182.496.345,1.016.488,1.562.132-.525.288-1.037.47-1.537l1.441-3.929h1.143l-2.564,6.855c-.275.74-.489,1.251-.642,1.53-.203.376-.436.652-.698.828-.262.176-.575.264-.939.264-.22,0-.465-.047-.736-.141Z"/>
        </g>
      </g>
    </g>
    <g>
      <circle class="cls-3" cx="433" cy="206" r="28"/>
      <path class="cls-21" d="M424,207.7l4.6,4.6,13.3-13.3"/>
    </g>
    <g>
      <path class="cls-2" d="M384,318h101c8.3,0,15,6.7,15,15h0c0,8.3-6.7,15-15,15h-101c-8.3,0-15-6.7-15-15h0c0-8.3,6.7-15,15-15Z"/>
      <g class="cls-15">
        <g class="cls-15">
          <g class="cls-15">
            <path class="cls-19" d="M415.495,329.126h2.905c.655,0,1.155.05,1.499.15.462.136.857.378,1.187.726.33.347.58.772.752,1.275s.258,1.123.258,1.861c0,.647-.08,1.206-.241,1.676-.197.572-.479,1.036-.844,1.391-.275.269-.647.479-1.117.629-.351.11-.819.166-1.407.166h-2.991v-7.874ZM417.085,330.458v5.216h1.187c.444,0,.765-.025.962-.076.258-.064.472-.173.642-.327s.309-.407.416-.76.161-.834.161-1.442-.054-1.076-.161-1.402c-.107-.325-.258-.58-.451-.762-.193-.184-.438-.307-.735-.371-.223-.05-.657-.075-1.306-.075h-.714Z"/>
            <path class="cls-19" d="M423.434,330.522v-1.396h1.509v1.396h-1.509ZM423.434,337v-5.704h1.509v5.704h-1.509Z"/>
            <path class="cls-19" d="M425.958,335.373l1.515-.231c.064.294.195.517.392.669.197.152.473.229.827.229.391,0,.685-.072.881-.215.133-.101.199-.235.199-.403,0-.114-.036-.21-.107-.284-.075-.072-.244-.139-.505-.199-1.218-.269-1.989-.514-2.315-.736-.451-.308-.677-.735-.677-1.283,0-.494.195-.909.586-1.246.39-.337.995-.505,1.815-.505.78,0,1.36.127,1.74.382.379.254.641.63.784,1.127l-1.424.264c-.061-.222-.176-.393-.346-.51-.171-.119-.413-.178-.729-.178-.397,0-.682.056-.854.166-.115.079-.172.182-.172.307,0,.107.05.199.15.273.136.101.605.242,1.41.425.804.183,1.364.406,1.684.671.314.27.473.644.473,1.123,0,.522-.219.973-.655,1.348-.438.377-1.083.564-1.939.564-.776,0-1.392-.157-1.845-.473s-.749-.743-.889-1.283Z"/>
            <path class="cls-19" d="M432.494,331.296h1.392v.778c.497-.604,1.09-.907,1.777-.907.365,0,.683.075.951.226s.488.378.66.682c.251-.304.521-.531.812-.682s.6-.226.929-.226c.419,0,.773.085,1.063.255s.507.42.65.75c.104.243.155.637.155,1.182v3.646h-1.509v-3.26c0-.566-.052-.932-.156-1.096-.14-.215-.354-.322-.645-.322-.211,0-.41.064-.596.193-.187.129-.32.317-.403.566-.082.249-.123.642-.123,1.179v2.739h-1.51v-3.126c0-.555-.026-.913-.08-1.074s-.138-.281-.25-.36c-.113-.078-.266-.117-.459-.117-.233,0-.442.062-.629.188-.186.125-.319.307-.4.543-.08.236-.12.628-.12,1.176v2.771h-1.51v-5.704Z"/>
            <path class="cls-19" d="M442.388,330.522v-1.396h1.51v1.396h-1.51ZM442.388,337v-5.704h1.51v5.704h-1.51Z"/>
            <path class="cls-19" d="M444.912,335.373l1.515-.231c.064.294.195.517.393.669.196.152.473.229.827.229.39,0,.684-.072.881-.215.132-.101.198-.235.198-.403,0-.114-.035-.21-.107-.284-.075-.072-.243-.139-.505-.199-1.217-.269-1.989-.514-2.314-.736-.451-.308-.677-.735-.677-1.283,0-.494.195-.909.585-1.246.391-.337.996-.505,1.815-.505.781,0,1.361.127,1.74.382.38.254.642.63.784,1.127l-1.423.264c-.062-.222-.177-.393-.347-.51-.17-.119-.413-.178-.728-.178-.397,0-.683.056-.854.166-.114.079-.172.182-.172.307,0,.107.051.199.15.273.137.101.606.242,1.41.425s1.365.406,1.684.671c.315.27.473.644.473,1.123,0,.522-.218.973-.655,1.348-.437.377-1.083.564-1.938.564-.777,0-1.393-.157-1.846-.473-.452-.315-.749-.743-.889-1.283Z"/>
            <path class="cls-19" d="M451.03,335.373l1.515-.231c.064.294.195.517.392.669.197.152.473.229.827.229.391,0,.685-.072.881-.215.133-.101.199-.235.199-.403,0-.114-.036-.21-.107-.284-.075-.072-.244-.139-.505-.199-1.218-.269-1.989-.514-2.315-.736-.451-.308-.677-.735-.677-1.283,0-.494.195-.909.586-1.246.39-.337.995-.505,1.815-.505.78,0,1.36.127,1.74.382.379.254.641.63.784,1.127l-1.424.264c-.061-.222-.176-.393-.346-.51-.171-.119-.413-.178-.729-.178-.397,0-.682.056-.854.166-.115.079-.172.182-.172.307,0,.107.05.199.15.273.136.101.605.242,1.41.425.804.183,1.364.406,1.684.671.314.27.473.644.473,1.123,0,.522-.219.973-.655,1.348-.438.377-1.083.564-1.939.564-.776,0-1.392-.157-1.845-.473s-.749-.743-.889-1.283Z"/>
          </g>
        </g>
      </g>
    </g>
  </g>
  <g>
    <g>
      <path id="j" class="cls-7" d="M35.8.6h191.2c18.3,0,33.2,14.2,33.2,31.8v435.3c0,17.6-14.9,31.8-33.2,31.8H35.8c-18.3,0-33.2-14.2-33.2-31.8V32.4C2.6,14.8,17.5.6,35.8.6h0Z"/>
      <path id="j1" class="cls-14" d="M35.8.6h191.2c18.3,0,33.2,14.2,33.2,31.8v435.3c0,17.6-14.9,31.8-33.2,31.8H35.8c-18.3,0-33.2-14.2-33.2-31.8V32.4C2.6,14.8,17.5.6,35.8.6h0Z"/>
    </g>
    <path class="cls-4" d="M227.7,0H34.9c-9,.5-17.3,4.7-24.9,12.3,4.9-4.3,13.6-10,25.1-10h192.4c11.5,0,20.2,5.7,25.1,10-7.6-7.7-15.9-11.8-24.9-12.3h0Z"/>
    <path class="cls-9" d="M255,462.7V35c0-11.5-4.2-15.7-6.7-18.4-2.5-2.7-2.6-4.1,1-2.1,3.6,2.1,10.8,8,10.8,20.5v427.7c0,12.5-7.2,18.4-10.8,20.5s-3.5.7-1-2.1,6.7-7,6.7-18.4h0Z"/>
    <path class="cls-12" d="M7.7,462.7V35c0-11.5,4.2-15.7,6.7-18.4,2.5-2.7,2.6-4.1-1-2.1-3.6,2.1-10.8,8-10.8,20.5v427.7c0,12.5,7.2,18.4,10.8,20.5s3.5.7,1-2.1c-2.5-2.7-6.7-7-6.7-18.4h0Z"/>
    <path class="cls-8" d="M2,101.6h1c1.1,0,2,.9,2,2v60.4c0,1.1-.9,2-2,2h-1c-1.1,0-2-.9-2-2v-60.3c0-1.1.9-2,2-2h0v-.1ZM259.5,154h1c1.1,0,2,.9,2,2v42.9c0,1.1-.9,2-2,2h-1c-1.1,0-2-.9-2-2v-42.9c0-1.1.9-2,2-2Z"/>
    <g>
      <path id="k" class="cls-6" d="M108.7,12.4H34.3c-11.1,0-15.517,8.374-19.2,17.4v422.4c0,12.9,12.5,24.3,26.6,24.3h179.3c13.6,0,26.6-11.5,26.6-24.3V31c0-11.8-8.8-18.5-19.2-18.6h-75.6c-.3,0-5.5,2.2-7.7,7.6-2.2,5.4-6.6,9.7-11.4,9.7h-5.6c-2.3,0-8.3-2.2-11.4-9.7-3.1-7.4-7.8-7.5-8.1-7.6h.1Z"/>
      <g>
        <g>
          <rect id="n" x="30" y="173" width="204" height="40" rx="5" ry="5"/>
          <rect id="n1" class="cls-19" x="30" y="173" width="204" height="40" rx="5" ry="5"/>
        </g>
        <g>
          <g class="cls-15">
            <g class="cls-15">
              <g class="cls-15">
                <path class="cls-18" d="M46.933,193v-7.158h.947v7.158h-.947Z"/>
                <path class="cls-18" d="M51.356,192.214l.127.776c-.248.052-.469.078-.664.078-.319,0-.566-.051-.742-.151s-.299-.233-.371-.397c-.072-.165-.107-.511-.107-1.038v-2.983h-.645v-.684h.645v-1.284l.874-.527v1.812h.884v.684h-.884v3.032c0,.251.016.412.046.483s.082.129.151.171.17.063.3.063c.098,0,.226-.012.386-.034Z"/>
                <path class="cls-18" d="M55.766,191.33l.908.112c-.143.53-.409.942-.796,1.235s-.882.439-1.484.439c-.758,0-1.36-.233-1.804-.701-.444-.467-.667-1.122-.667-1.965,0-.872.225-1.55.674-2.031s1.032-.723,1.748-.723c.693,0,1.26.236,1.699.708s.659,1.136.659,1.992c0,.052-.001.13-.005.234h-3.867c.033.569.194,1.006.483,1.309s.651.454,1.084.454c.322,0,.597-.085.825-.254s.409-.439.542-.811ZM52.88,189.909h2.896c-.039-.437-.15-.764-.332-.981-.28-.339-.643-.508-1.089-.508-.404,0-.743.135-1.018.405s-.427.632-.457,1.084Z"/>
                <path class="cls-18" d="M57.777,193v-5.186h.786v.728c.163-.254.379-.458.649-.612.27-.155.578-.232.923-.232.384,0,.699.08.945.239s.419.383.52.669c.41-.605.944-.908,1.602-.908.514,0,.91.143,1.187.428.277.284.415.723.415,1.315v3.56h-.874v-3.267c0-.352-.028-.604-.085-.759-.057-.155-.16-.279-.31-.374s-.326-.142-.527-.142c-.365,0-.667.121-.908.363-.241.243-.361.631-.361,1.165v3.013h-.879v-3.369c0-.391-.072-.684-.215-.879s-.377-.293-.703-.293c-.248,0-.476.065-.686.195s-.362.32-.457.571-.142.612-.142,1.084v2.69h-.879Z"/>
                <path class="cls-18" d="M68.729,193.122l.425-2.08h-.825v-.728h.972l.361-1.772h-1.333v-.728h1.479l.425-2.095h.732l-.425,2.095h1.538l.425-2.095h.737l-.425,2.095h.845v.728h-.991l-.366,1.772h1.357v.728h-1.504l-.425,2.08h-.732l.42-2.08h-1.533l-.425,2.08h-.732ZM70.033,190.314h1.533l.366-1.772h-1.538l-.361,1.772Z"/>
                <path class="cls-18" d="M74.203,189.47c0-.847.087-1.527.261-2.044.174-.516.433-.913.776-1.193s.775-.42,1.296-.42c.384,0,.721.077,1.011.232.29.154.529.377.718.668.189.292.337.646.444,1.064.107.419.161.982.161,1.692,0,.84-.086,1.518-.259,2.034-.172.516-.431.914-.774,1.195-.343.282-.777.423-1.301.423-.69,0-1.232-.247-1.626-.742-.472-.596-.708-1.565-.708-2.91ZM75.106,189.47c0,1.175.138,1.957.413,2.347.275.389.614.583,1.018.583s.743-.195,1.018-.586.413-1.172.413-2.344c0-1.179-.138-1.961-.413-2.349s-.618-.581-1.028-.581c-.404,0-.726.171-.967.513-.303.437-.454,1.242-.454,2.417Z"/>
                <path class="cls-18" d="M79.765,189.47c0-.847.087-1.527.261-2.044.174-.516.433-.913.776-1.193s.775-.42,1.296-.42c.384,0,.721.077,1.011.232.29.154.529.377.718.668.189.292.337.646.444,1.064.107.419.161.982.161,1.692,0,.84-.086,1.518-.259,2.034-.172.516-.431.914-.774,1.195-.343.282-.777.423-1.301.423-.69,0-1.232-.247-1.626-.742-.472-.596-.708-1.565-.708-2.91ZM80.668,189.47c0,1.175.138,1.957.413,2.347.275.389.614.583,1.018.583s.743-.195,1.018-.586.413-1.172.413-2.344c0-1.179-.138-1.961-.413-2.349s-.618-.581-1.028-.581c-.404,0-.726.171-.967.513-.303.437-.454,1.242-.454,2.417Z"/>
                <path class="cls-18" d="M88.637,193h-.879v-5.601c-.211.202-.489.403-.833.605s-.652.354-.925.454v-.85c.492-.231.921-.511,1.289-.84s.628-.647.781-.957h.566v7.188Z"/>
              </g>
            </g>
          </g>
          <g class="cls-15">
            <g class="cls-15">
              <g class="cls-15">
                <path class="cls-18" d="M195.704,195.623v-2.66c-.83-.237-1.438-.596-1.825-1.076-.388-.48-.581-1.062-.581-1.748,0-.694.219-1.277.657-1.749.438-.472,1.021-.744,1.749-.815v-.629h.92v.629c.673.08,1.208.31,1.606.688s.652.886.762,1.521l-1.606.209c-.097-.499-.351-.838-.762-1.016v2.482c1.016.274,1.708.631,2.076,1.069.368.438.552.999.552,1.685,0,.767-.231,1.412-.695,1.937-.463.524-1.107.847-1.933.965v1.187h-.92v-1.154c-.732-.09-1.327-.362-1.784-.819s-.749-1.103-.876-1.937l1.657-.178c.068.339.195.631.381.877.186.245.394.423.622.533ZM195.704,188.957c-.25.085-.449.229-.597.432s-.222.428-.222.674c0,.224.068.433.203.625s.341.348.616.467v-2.197ZM196.625,195.711c.317-.059.576-.206.774-.44.199-.235.298-.511.298-.829,0-.283-.083-.527-.25-.732-.167-.205-.441-.363-.822-.473v2.475Z"/>
                <path class="cls-18" d="M206.406,195.344v1.656h-6.252c.068-.626.271-1.22.609-1.78s1.007-1.305,2.006-2.231c.804-.749,1.297-1.257,1.479-1.523.246-.368.368-.732.368-1.092,0-.397-.107-.703-.32-.917-.214-.214-.509-.321-.886-.321-.373,0-.668.112-.889.337s-.347.597-.381,1.117l-1.777-.178c.106-.981.438-1.687.997-2.114.559-.427,1.257-.641,2.095-.641.918,0,1.64.248,2.165.742.525.496.787,1.111.787,1.848,0,.419-.075.817-.226,1.196-.15.379-.388.775-.714,1.19-.216.275-.605.671-1.168,1.188-.563.516-.919.858-1.069,1.027-.15.17-.272.335-.365.496h3.542Z"/>
                <path class="cls-18" d="M207.65,194.848l1.727-.189c.042.351.152.611.33.78s.413.254.705.254c.368,0,.681-.169.939-.508s.423-1.041.495-2.107c-.449.521-1.009.78-1.682.78-.732,0-1.364-.282-1.895-.847-.531-.565-.796-1.301-.796-2.206,0-.943.28-1.704.841-2.282.561-.577,1.274-.866,2.142-.866.944,0,1.718.365,2.323,1.095.605.73.908,1.931.908,3.603,0,1.701-.315,2.929-.946,3.682s-1.452,1.13-2.463,1.13c-.728,0-1.316-.193-1.765-.581-.449-.387-.736-.966-.863-1.736ZM211.688,190.951c0-.576-.132-1.022-.397-1.34-.264-.317-.57-.477-.917-.477-.33,0-.604.131-.822.391-.218.261-.327.687-.327,1.279,0,.601.119,1.042.355,1.323s.533.423.889.423c.343,0,.631-.136.867-.406.234-.271.352-.669.352-1.193Z"/>
              </g>
            </g>
          </g>
        </g>
        <g>
          <rect id="p" x="30" y="221" width="204" height="40" rx="5" ry="5"/>
          <rect id="p1" class="cls-19" x="30" y="221" width="204" height="40" rx="5" ry="5"/>
        </g>
        <g>
          <g class="cls-15">
            <g class="cls-15">
              <g class="cls-15">
                <path class="cls-18" d="M46.933,241v-7.158h.947v7.158h-.947Z"/>
                <path class="cls-18" d="M51.356,240.214l.127.776c-.248.052-.469.078-.664.078-.319,0-.566-.051-.742-.151s-.299-.233-.371-.397c-.072-.165-.107-.511-.107-1.038v-2.983h-.645v-.684h.645v-1.284l.874-.527v1.812h.884v.684h-.884v3.032c0,.251.016.412.046.483s.082.129.151.171.17.063.3.063c.098,0,.226-.012.386-.034Z"/>
                <path class="cls-18" d="M55.766,239.33l.908.112c-.143.53-.409.942-.796,1.235s-.882.439-1.484.439c-.758,0-1.36-.233-1.804-.701-.444-.467-.667-1.122-.667-1.965,0-.872.225-1.55.674-2.031s1.032-.723,1.748-.723c.693,0,1.26.236,1.699.708s.659,1.136.659,1.992c0,.052-.001.13-.005.234h-3.867c.033.569.194,1.006.483,1.309s.651.454,1.084.454c.322,0,.597-.085.825-.254s.409-.439.542-.811ZM52.88,237.909h2.896c-.039-.437-.15-.764-.332-.981-.28-.339-.643-.508-1.089-.508-.404,0-.743.135-1.018.405s-.427.632-.457,1.084Z"/>
                <path class="cls-18" d="M57.777,241v-5.186h.786v.728c.163-.254.379-.458.649-.612.27-.155.578-.232.923-.232.384,0,.699.08.945.239s.419.383.52.669c.41-.605.944-.908,1.602-.908.514,0,.91.143,1.187.428.277.284.415.723.415,1.315v3.56h-.874v-3.267c0-.352-.028-.604-.085-.759-.057-.155-.16-.279-.31-.374s-.326-.142-.527-.142c-.365,0-.667.121-.908.363-.241.243-.361.631-.361,1.165v3.013h-.879v-3.369c0-.391-.072-.684-.215-.879s-.377-.293-.703-.293c-.248,0-.476.065-.686.195s-.362.32-.457.571-.142.612-.142,1.084v2.69h-.879Z"/>
                <path class="cls-18" d="M68.729,241.122l.425-2.08h-.825v-.728h.972l.361-1.772h-1.333v-.728h1.479l.425-2.095h.732l-.425,2.095h1.538l.425-2.095h.737l-.425,2.095h.845v.728h-.991l-.366,1.772h1.357v.728h-1.504l-.425,2.08h-.732l.42-2.08h-1.533l-.425,2.08h-.732ZM70.033,238.314h1.533l.366-1.772h-1.538l-.361,1.772Z"/>
                <path class="cls-18" d="M74.203,237.47c0-.847.087-1.527.261-2.044.174-.516.433-.913.776-1.193s.775-.42,1.296-.42c.384,0,.721.077,1.011.232.29.154.529.377.718.668.189.292.337.646.444,1.064.107.419.161.982.161,1.692,0,.84-.086,1.518-.259,2.034-.172.516-.431.914-.774,1.195-.343.282-.777.423-1.301.423-.69,0-1.232-.247-1.626-.742-.472-.596-.708-1.565-.708-2.91ZM75.106,237.47c0,1.175.138,1.957.413,2.347.275.389.614.583,1.018.583s.743-.195,1.018-.586.413-1.172.413-2.344c0-1.179-.138-1.961-.413-2.349s-.618-.581-1.028-.581c-.404,0-.726.171-.967.513-.303.437-.454,1.242-.454,2.417Z"/>
                <path class="cls-18" d="M79.765,237.47c0-.847.087-1.527.261-2.044.174-.516.433-.913.776-1.193s.775-.42,1.296-.42c.384,0,.721.077,1.011.232.29.154.529.377.718.668.189.292.337.646.444,1.064.107.419.161.982.161,1.692,0,.84-.086,1.518-.259,2.034-.172.516-.431.914-.774,1.195-.343.282-.777.423-1.301.423-.69,0-1.232-.247-1.626-.742-.472-.596-.708-1.565-.708-2.91ZM80.668,237.47c0,1.175.138,1.957.413,2.347.275.389.614.583,1.018.583s.743-.195,1.018-.586.413-1.172.413-2.344c0-1.179-.138-1.961-.413-2.349s-.618-.581-1.028-.581c-.404,0-.726.171-.967.513-.303.437-.454,1.242-.454,2.417Z"/>
                <path class="cls-18" d="M89.945,240.155v.845h-4.731c-.006-.212.028-.415.103-.61.121-.322.313-.64.579-.952s.648-.674,1.15-1.084c.778-.638,1.304-1.144,1.577-1.516.273-.373.41-.726.41-1.058,0-.349-.125-.642-.374-.882-.249-.238-.574-.358-.974-.358-.423,0-.762.127-1.016.381s-.382.605-.386,1.055l-.903-.093c.062-.674.294-1.188.698-1.541.404-.353.946-.529,1.626-.529.687,0,1.23.19,1.631.571s.601.853.601,1.416c0,.286-.059.568-.176.845s-.312.568-.583.874-.724.726-1.355,1.26c-.527.442-.866.743-1.016.901-.15.157-.273.316-.371.476h3.511Z"/>
              </g>
            </g>
          </g>
          <g class="cls-15">
            <g class="cls-15">
              <g class="cls-15">
                <path class="cls-18" d="M189.904,243.623v-2.66c-.83-.237-1.438-.596-1.825-1.076-.388-.48-.581-1.062-.581-1.748,0-.694.219-1.277.657-1.749.438-.472,1.021-.744,1.749-.815v-.629h.92v.629c.673.08,1.208.31,1.606.688.397.379.651.886.762,1.521l-1.606.209c-.097-.499-.351-.838-.762-1.016v2.482c1.016.274,1.708.631,2.076,1.069.368.438.552.999.552,1.685,0,.767-.231,1.412-.695,1.937-.463.524-1.107.847-1.933.965v1.187h-.92v-1.154c-.732-.09-1.327-.362-1.784-.819s-.749-1.103-.876-1.937l1.657-.178c.067.339.194.631.381.877.186.245.394.423.622.533ZM189.904,236.957c-.25.085-.449.229-.597.432-.148.203-.223.428-.223.674,0,.224.068.433.203.625.136.192.341.348.616.467v-2.197ZM190.824,243.711c.317-.059.576-.206.774-.44.199-.235.299-.511.299-.829,0-.283-.084-.527-.251-.732s-.441-.363-.822-.473v2.475Z"/>
                <path class="cls-18" d="M199.146,245h-1.784v-6.723c-.651.609-1.42,1.061-2.304,1.353v-1.618c.465-.152.971-.441,1.517-.867.546-.425.921-.921,1.124-1.488h1.447v9.344Z"/>
                <path class="cls-18" d="M204.827,235.656c.901,0,1.606.321,2.114.965.604.762.907,2.025.907,3.789s-.305,3.026-.914,3.797c-.503.635-1.206.951-2.107.951s-1.636-.348-2.189-1.044c-.555-.696-.832-1.937-.832-3.723,0-1.752.305-3.013.914-3.783.504-.635,1.206-.952,2.107-.952ZM204.827,237.135c-.216,0-.408.069-.577.207-.17.138-.301.384-.394.739-.123.461-.185,1.237-.185,2.329s.056,1.843.165,2.251c.11.408.249.68.416.815s.358.203.574.203.408-.068.578-.206c.169-.138.3-.384.394-.739.122-.457.184-1.232.184-2.324s-.055-1.842-.165-2.25c-.109-.408-.248-.681-.416-.818-.167-.138-.358-.207-.574-.207Z"/>
                <path class="cls-18" d="M209.067,242.607l1.777-.185c.051.402.201.721.451.955.249.235.537.353.863.353.372,0,.688-.151.945-.454.259-.303.388-.759.388-1.368,0-.57-.128-.999-.384-1.285-.257-.285-.59-.428-1-.428-.513,0-.972.226-1.378.679l-1.447-.21.914-4.843h4.717v1.669h-3.364l-.279,1.581c.397-.199.804-.298,1.219-.298.791,0,1.462.287,2.012.863.551.575.825,1.322.825,2.24,0,.766-.222,1.449-.666,2.051-.605.82-1.445,1.23-2.521,1.23-.858,0-1.56-.23-2.101-.691-.542-.461-.865-1.081-.972-1.859Z"/>
              </g>
            </g>
          </g>
        </g>
        <g>
          <rect id="r" x="30" y="269" width="204" height="40" rx="5" ry="5"/>
          <rect id="r1" class="cls-19" x="30" y="269" width="204" height="40" rx="5" ry="5"/>
        </g>
        <g>
          <g class="cls-15">
            <g class="cls-15">
              <g class="cls-15">
                <path class="cls-18" d="M46.933,289v-7.158h.947v7.158h-.947Z"/>
                <path class="cls-18" d="M51.356,288.214l.127.776c-.248.052-.469.078-.664.078-.319,0-.566-.051-.742-.151s-.299-.233-.371-.397c-.072-.165-.107-.511-.107-1.038v-2.983h-.645v-.684h.645v-1.284l.874-.527v1.812h.884v.684h-.884v3.032c0,.251.016.412.046.483s.082.129.151.171.17.063.3.063c.098,0,.226-.012.386-.034Z"/>
                <path class="cls-18" d="M55.766,287.33l.908.112c-.143.53-.409.942-.796,1.235s-.882.439-1.484.439c-.758,0-1.36-.233-1.804-.701-.444-.467-.667-1.122-.667-1.965,0-.872.225-1.55.674-2.031s1.032-.723,1.748-.723c.693,0,1.26.236,1.699.708s.659,1.136.659,1.992c0,.052-.001.13-.005.234h-3.867c.033.569.194,1.006.483,1.309s.651.454,1.084.454c.322,0,.597-.085.825-.254s.409-.439.542-.811ZM52.88,285.909h2.896c-.039-.437-.15-.764-.332-.981-.28-.339-.643-.508-1.089-.508-.404,0-.743.135-1.018.405s-.427.632-.457,1.084Z"/>
                <path class="cls-18" d="M57.777,289v-5.186h.786v.728c.163-.254.379-.458.649-.612.27-.155.578-.232.923-.232.384,0,.699.08.945.239s.419.383.52.669c.41-.605.944-.908,1.602-.908.514,0,.91.143,1.187.428.277.284.415.723.415,1.315v3.56h-.874v-3.267c0-.352-.028-.604-.085-.759-.057-.155-.16-.279-.31-.374s-.326-.142-.527-.142c-.365,0-.667.121-.908.363-.241.243-.361.631-.361,1.165v3.013h-.879v-3.369c0-.391-.072-.684-.215-.879s-.377-.293-.703-.293c-.248,0-.476.065-.686.195s-.362.32-.457.571-.142.612-.142,1.084v2.69h-.879Z"/>
                <path class="cls-18" d="M68.729,289.122l.425-2.08h-.825v-.728h.972l.361-1.772h-1.333v-.728h1.479l.425-2.095h.732l-.425,2.095h1.538l.425-2.095h.737l-.425,2.095h.845v.728h-.991l-.366,1.772h1.357v.728h-1.504l-.425,2.08h-.732l.42-2.08h-1.533l-.425,2.08h-.732ZM70.033,286.314h1.533l.366-1.772h-1.538l-.361,1.772Z"/>
                <path class="cls-18" d="M74.203,285.47c0-.847.087-1.527.261-2.044.174-.516.433-.913.776-1.193s.775-.42,1.296-.42c.384,0,.721.077,1.011.232.29.154.529.377.718.668.189.292.337.646.444,1.064.107.419.161.982.161,1.692,0,.84-.086,1.518-.259,2.034-.172.516-.431.914-.774,1.195-.343.282-.777.423-1.301.423-.69,0-1.232-.247-1.626-.742-.472-.596-.708-1.565-.708-2.91ZM75.106,285.47c0,1.175.138,1.957.413,2.347.275.389.614.583,1.018.583s.743-.195,1.018-.586.413-1.172.413-2.344c0-1.179-.138-1.961-.413-2.349s-.618-.581-1.028-.581c-.404,0-.726.171-.967.513-.303.437-.454,1.242-.454,2.417Z"/>
                <path class="cls-18" d="M79.765,285.47c0-.847.087-1.527.261-2.044.174-.516.433-.913.776-1.193s.775-.42,1.296-.42c.384,0,.721.077,1.011.232.29.154.529.377.718.668.189.292.337.646.444,1.064.107.419.161.982.161,1.692,0,.84-.086,1.518-.259,2.034-.172.516-.431.914-.774,1.195-.343.282-.777.423-1.301.423-.69,0-1.232-.247-1.626-.742-.472-.596-.708-1.565-.708-2.91ZM80.668,285.47c0,1.175.138,1.957.413,2.347.275.389.614.583,1.018.583s.743-.195,1.018-.586.413-1.172.413-2.344c0-1.179-.138-1.961-.413-2.349s-.618-.581-1.028-.581c-.404,0-.726.171-.967.513-.303.437-.454,1.242-.454,2.417Z"/>
                <path class="cls-18" d="M85.331,287.11l.879-.117c.101.498.272.856.515,1.077.243.219.538.329.886.329.414,0,.763-.144,1.047-.43s.427-.642.427-1.064c0-.403-.132-.736-.396-.999-.264-.262-.599-.393-1.006-.393-.166,0-.373.032-.62.098l.098-.771c.059.007.106.01.142.01.375,0,.711-.098,1.011-.293s.449-.496.449-.903c0-.322-.109-.589-.327-.801s-.5-.317-.845-.317c-.342,0-.626.107-.854.322s-.375.537-.439.967l-.879-.156c.107-.589.352-1.046.732-1.369.381-.324.854-.486,1.421-.486.391,0,.75.084,1.079.252.329.167.58.396.754.686s.261.598.261.923c0,.31-.083.591-.249.845s-.412.456-.737.605c.423.098.752.301.986.607.234.309.352.693.352,1.155,0,.625-.228,1.155-.684,1.589-.456.436-1.032.652-1.729.652-.628,0-1.15-.188-1.565-.562s-.652-.859-.71-1.455Z"/>
              </g>
            </g>
          </g>
          <g class="cls-15">
            <g class="cls-15">
              <g class="cls-15">
                <path class="cls-18" d="M190.004,291.623v-2.66c-.83-.237-1.438-.596-1.825-1.076-.388-.48-.581-1.062-.581-1.748,0-.694.219-1.277.657-1.749.438-.472,1.021-.744,1.749-.815v-.629h.92v.629c.673.08,1.208.31,1.606.688s.652.886.762,1.521l-1.606.209c-.097-.499-.351-.838-.762-1.016v2.482c1.016.274,1.708.631,2.076,1.069.368.438.552.999.552,1.685,0,.767-.231,1.412-.695,1.937-.463.524-1.107.847-1.933.965v1.187h-.92v-1.154c-.732-.09-1.327-.362-1.784-.819s-.749-1.103-.876-1.937l1.657-.178c.068.339.195.631.381.877.186.245.394.423.622.533ZM190.004,284.957c-.25.085-.449.229-.597.432s-.222.428-.222.674c0,.224.068.433.203.625s.341.348.616.467v-2.197ZM190.924,291.711c.317-.059.576-.206.774-.44.199-.235.298-.511.298-.829,0-.283-.083-.527-.25-.732-.167-.205-.441-.363-.822-.473v2.475Z"/>
                <path class="cls-18" d="M196.212,287.979c-.461-.194-.797-.462-1.006-.803-.21-.341-.314-.714-.314-1.12,0-.694.242-1.268.727-1.72.485-.453,1.173-.68,2.066-.68.884,0,1.571.227,2.06.68.489.452.733,1.025.733,1.72,0,.432-.112.815-.336,1.152-.224.336-.54.593-.946.771.516.208.909.511,1.178.908.269.397.403.857.403,1.377,0,.859-.274,1.558-.822,2.096-.548.537-1.277.806-2.187.806-.846,0-1.551-.222-2.114-.667-.665-.524-.997-1.244-.997-2.158,0-.503.125-.966.375-1.387s.643-.746,1.181-.975ZM196.415,290.169c0,.491.126.874.378,1.149.251.274.566.412.942.412.368,0,.673-.132.914-.396s.362-.646.362-1.146c0-.436-.123-.785-.368-1.05s-.557-.397-.933-.397c-.436,0-.761.15-.975.451-.213.301-.32.626-.32.978ZM196.58,286.183c0,.355.101.633.302.831.201.199.468.299.803.299.338,0,.609-.101.812-.302s.305-.479.305-.835c0-.334-.101-.602-.302-.803-.201-.201-.466-.301-.796-.301-.343,0-.616.102-.819.305s-.305.472-.305.806Z"/>
                <path class="cls-18" d="M206.476,293h-1.784v-6.723c-.652.609-1.42,1.061-2.304,1.353v-1.618c.465-.152.971-.441,1.517-.867.546-.425.92-.921,1.124-1.488h1.447v9.344Z"/>
                <path class="cls-18" d="M212.157,283.656c.901,0,1.606.321,2.114.965.605.762.908,2.025.908,3.789s-.305,3.026-.914,3.797c-.503.635-1.206.951-2.107.951s-1.636-.348-2.19-1.044-.832-1.937-.832-3.723c0-1.752.305-3.013.914-3.783.503-.635,1.206-.952,2.107-.952ZM212.157,285.135c-.216,0-.408.069-.578.207s-.3.384-.394.739c-.123.461-.184,1.237-.184,2.329s.055,1.843.165,2.251.249.68.416.815c.167.136.358.203.574.203s.408-.068.578-.206.3-.384.394-.739c.123-.457.184-1.232.184-2.324s-.055-1.842-.165-2.25-.249-.681-.416-.818c-.167-.138-.358-.207-.574-.207Z"/>
              </g>
            </g>
          </g>
        </g>
        <g>
          <rect id="t" x="30" y="317" width="204" height="40" rx="5" ry="5"/>
          <rect id="t1" class="cls-19" x="30" y="317" width="204" height="40" rx="5" ry="5"/>
        </g>
        <g>
          <g class="cls-15">
            <g class="cls-15">
              <g class="cls-15">
                <path class="cls-18" d="M46.933,337v-7.158h.947v7.158h-.947Z"/>
                <path class="cls-18" d="M51.356,336.214l.127.776c-.248.052-.469.078-.664.078-.319,0-.566-.051-.742-.151s-.299-.233-.371-.397c-.072-.165-.107-.511-.107-1.038v-2.983h-.645v-.684h.645v-1.284l.874-.527v1.812h.884v.684h-.884v3.032c0,.251.016.412.046.483s.082.129.151.171.17.063.3.063c.098,0,.226-.012.386-.034Z"/>
                <path class="cls-18" d="M55.766,335.33l.908.112c-.143.53-.409.942-.796,1.235s-.882.439-1.484.439c-.758,0-1.36-.233-1.804-.701-.444-.467-.667-1.122-.667-1.965,0-.872.225-1.55.674-2.031s1.032-.723,1.748-.723c.693,0,1.26.236,1.699.708s.659,1.136.659,1.992c0,.052-.001.13-.005.234h-3.867c.033.569.194,1.006.483,1.309s.651.454,1.084.454c.322,0,.597-.085.825-.254s.409-.439.542-.811ZM52.88,333.909h2.896c-.039-.437-.15-.764-.332-.981-.28-.339-.643-.508-1.089-.508-.404,0-.743.135-1.018.405s-.427.632-.457,1.084Z"/>
                <path class="cls-18" d="M57.777,337v-5.186h.786v.728c.163-.254.379-.458.649-.612.27-.155.578-.232.923-.232.384,0,.699.08.945.239s.419.383.52.669c.41-.605.944-.908,1.602-.908.514,0,.91.143,1.187.428.277.284.415.723.415,1.315v3.56h-.874v-3.267c0-.352-.028-.604-.085-.759-.057-.155-.16-.279-.31-.374s-.326-.142-.527-.142c-.365,0-.667.121-.908.363-.241.243-.361.631-.361,1.165v3.013h-.879v-3.369c0-.391-.072-.684-.215-.879s-.377-.293-.703-.293c-.248,0-.476.065-.686.195s-.362.32-.457.571-.142.612-.142,1.084v2.69h-.879Z"/>
                <path class="cls-18" d="M68.729,337.122l.425-2.08h-.825v-.728h.972l.361-1.772h-1.333v-.728h1.479l.425-2.095h.732l-.425,2.095h1.538l.425-2.095h.737l-.425,2.095h.845v.728h-.991l-.366,1.772h1.357v.728h-1.504l-.425,2.08h-.732l.42-2.08h-1.533l-.425,2.08h-.732ZM70.033,334.314h1.533l.366-1.772h-1.538l-.361,1.772Z"/>
                <path class="cls-18" d="M74.203,333.47c0-.847.087-1.527.261-2.044.174-.516.433-.913.776-1.193s.775-.42,1.296-.42c.384,0,.721.077,1.011.232.29.154.529.377.718.668.189.292.337.646.444,1.064.107.419.161.982.161,1.692,0,.84-.086,1.518-.259,2.034-.172.516-.431.914-.774,1.195-.343.282-.777.423-1.301.423-.69,0-1.232-.247-1.626-.742-.472-.596-.708-1.565-.708-2.91ZM75.106,333.47c0,1.175.138,1.957.413,2.347.275.389.614.583,1.018.583s.743-.195,1.018-.586.413-1.172.413-2.344c0-1.179-.138-1.961-.413-2.349s-.618-.581-1.028-.581c-.404,0-.726.171-.967.513-.303.437-.454,1.242-.454,2.417Z"/>
                <path class="cls-18" d="M79.765,333.47c0-.847.087-1.527.261-2.044.174-.516.433-.913.776-1.193s.775-.42,1.296-.42c.384,0,.721.077,1.011.232.29.154.529.377.718.668.189.292.337.646.444,1.064.107.419.161.982.161,1.692,0,.84-.086,1.518-.259,2.034-.172.516-.431.914-.774,1.195-.343.282-.777.423-1.301.423-.69,0-1.232-.247-1.626-.742-.472-.596-.708-1.565-.708-2.91ZM80.668,333.47c0,1.175.138,1.957.413,2.347.275.389.614.583,1.018.583s.743-.195,1.018-.586.413-1.172.413-2.344c0-1.179-.138-1.961-.413-2.349s-.618-.581-1.028-.581c-.404,0-.726.171-.967.513-.303.437-.454,1.242-.454,2.417Z"/>
                <path class="cls-18" d="M88.144,337v-1.714h-3.105v-.806l3.267-4.639h.718v4.639h.967v.806h-.967v1.714h-.879ZM88.144,334.48v-3.228l-2.241,3.228h2.241Z"/>
              </g>
            </g>
          </g>
          <g class="cls-15">
            <g class="cls-15">
              <g class="cls-15">
                <path class="cls-18" d="M181.804,339.623v-2.66c-.829-.237-1.438-.596-1.824-1.076-.388-.48-.581-1.062-.581-1.748,0-.694.219-1.277.657-1.749.438-.472,1.021-.744,1.748-.815v-.629h.921v.629c.673.08,1.208.31,1.605.688.398.379.652.886.762,1.521l-1.605.209c-.098-.499-.352-.838-.762-1.016v2.482c1.016.274,1.707.631,2.075,1.069.368.438.553.999.553,1.685,0,.767-.231,1.412-.695,1.937-.463.524-1.107.847-1.933.965v1.187h-.921v-1.154c-.731-.09-1.326-.362-1.783-.819s-.749-1.103-.876-1.937l1.656-.178c.068.339.195.631.381.877.187.245.394.423.622.533ZM181.804,332.957c-.249.085-.448.229-.597.432-.147.203-.222.428-.222.674,0,.224.067.433.203.625.135.192.341.348.615.467v-2.197ZM182.725,339.711c.317-.059.575-.206.774-.44.198-.235.298-.511.298-.829,0-.283-.083-.527-.25-.732-.168-.205-.441-.363-.822-.473v2.475Z"/>
                <path class="cls-18" d="M191.046,341h-1.783v-6.723c-.652.609-1.42,1.061-2.305,1.353v-1.618c.466-.152.972-.441,1.518-.867.546-.425.92-.921,1.123-1.488h1.447v9.344Z"/>
                <path class="cls-18" d="M196.728,331.656c.901,0,1.605.321,2.113.965.605.762.908,2.025.908,3.789s-.305,3.026-.914,3.797c-.504.635-1.206.951-2.107.951-.906,0-1.636-.348-2.19-1.044-.554-.696-.831-1.937-.831-3.723,0-1.752.305-3.013.914-3.783.503-.635,1.206-.952,2.107-.952ZM196.728,333.135c-.216,0-.408.069-.578.207-.169.138-.3.384-.394.739-.122.461-.184,1.237-.184,2.329s.055,1.843.165,2.251c.109.408.248.68.416.815.167.136.358.203.574.203s.408-.068.577-.206c.17-.138.301-.384.394-.739.123-.457.185-1.232.185-2.324s-.056-1.842-.165-2.25c-.11-.408-.249-.681-.416-.818s-.358-.207-.574-.207Z"/>
                <path class="cls-18" d="M204.439,341v-1.873h-3.809v-1.561l4.037-5.91h1.498v5.903h1.155v1.567h-1.155v1.873h-1.727ZM204.439,337.56v-3.181l-2.139,3.181h2.139Z"/>
                <path class="cls-18" d="M211.67,341v-1.873h-3.809v-1.561l4.037-5.91h1.498v5.903h1.155v1.567h-1.155v1.873h-1.727ZM211.67,337.56v-3.181l-2.14,3.181h2.14Z"/>
              </g>
            </g>
          </g>
        </g>
        <g>
          <g>
            <rect id="v" x="30" y="365" width="204" height="40" rx="5" ry="5"/>
            <rect id="v1" class="cls-19" x="30" y="365" width="204" height="40" rx="5" ry="5"/>
          </g>
          <g>
            <g class="cls-15">
              <g class="cls-15">
                <g class="cls-15">
                  <path class="cls-18" d="M46.933,385v-7.158h.947v7.158h-.947Z"/>
                  <path class="cls-18" d="M51.356,384.214l.127.776c-.248.052-.469.078-.664.078-.319,0-.566-.051-.742-.151s-.299-.233-.371-.397c-.072-.165-.107-.511-.107-1.038v-2.983h-.645v-.684h.645v-1.284l.874-.527v1.812h.884v.684h-.884v3.032c0,.251.016.412.046.483s.082.129.151.171.17.063.3.063c.098,0,.226-.012.386-.034Z"/>
                  <path class="cls-18" d="M55.766,383.33l.908.112c-.143.53-.409.942-.796,1.235s-.882.439-1.484.439c-.758,0-1.36-.233-1.804-.701-.444-.467-.667-1.122-.667-1.965,0-.872.225-1.55.674-2.031s1.032-.723,1.748-.723c.693,0,1.26.236,1.699.708s.659,1.136.659,1.992c0,.052-.001.13-.005.234h-3.867c.033.569.194,1.006.483,1.309s.651.454,1.084.454c.322,0,.597-.085.825-.254s.409-.439.542-.811ZM52.88,381.909h2.896c-.039-.437-.15-.764-.332-.981-.28-.339-.643-.508-1.089-.508-.404,0-.743.135-1.018.405s-.427.632-.457,1.084Z"/>
                  <path class="cls-18" d="M57.777,385v-5.186h.786v.728c.163-.254.379-.458.649-.612.27-.155.578-.232.923-.232.384,0,.699.08.945.239s.419.383.52.669c.41-.605.944-.908,1.602-.908.514,0,.91.143,1.187.428.277.284.415.723.415,1.315v3.56h-.874v-3.267c0-.352-.028-.604-.085-.759-.057-.155-.16-.279-.31-.374s-.326-.142-.527-.142c-.365,0-.667.121-.908.363-.241.243-.361.631-.361,1.165v3.013h-.879v-3.369c0-.391-.072-.684-.215-.879s-.377-.293-.703-.293c-.248,0-.476.065-.686.195s-.362.32-.457.571-.142.612-.142,1.084v2.69h-.879Z"/>
                  <path class="cls-18" d="M68.729,385.122l.425-2.08h-.825v-.728h.972l.361-1.772h-1.333v-.728h1.479l.425-2.095h.732l-.425,2.095h1.538l.425-2.095h.737l-.425,2.095h.845v.728h-.991l-.366,1.772h1.357v.728h-1.504l-.425,2.08h-.732l.42-2.08h-1.533l-.425,2.08h-.732ZM70.033,382.314h1.533l.366-1.772h-1.538l-.361,1.772Z"/>
                  <path class="cls-18" d="M74.203,381.47c0-.847.087-1.527.261-2.044.174-.516.433-.913.776-1.193s.775-.42,1.296-.42c.384,0,.721.077,1.011.232.29.154.529.377.718.668.189.292.337.646.444,1.064.107.419.161.982.161,1.692,0,.84-.086,1.518-.259,2.034-.172.516-.431.914-.774,1.195-.343.282-.777.423-1.301.423-.69,0-1.232-.247-1.626-.742-.472-.596-.708-1.565-.708-2.91ZM75.106,381.47c0,1.175.138,1.957.413,2.347.275.389.614.583,1.018.583s.743-.195,1.018-.586.413-1.172.413-2.344c0-1.179-.138-1.961-.413-2.349s-.618-.581-1.028-.581c-.404,0-.726.171-.967.513-.303.437-.454,1.242-.454,2.417Z"/>
                  <path class="cls-18" d="M79.765,381.47c0-.847.087-1.527.261-2.044.174-.516.433-.913.776-1.193s.775-.42,1.296-.42c.384,0,.721.077,1.011.232.29.154.529.377.718.668.189.292.337.646.444,1.064.107.419.161.982.161,1.692,0,.84-.086,1.518-.259,2.034-.172.516-.431.914-.774,1.195-.343.282-.777.423-1.301.423-.69,0-1.232-.247-1.626-.742-.472-.596-.708-1.565-.708-2.91ZM80.668,381.47c0,1.175.138,1.957.413,2.347.275.389.614.583,1.018.583s.743-.195,1.018-.586.413-1.172.413-2.344c0-1.179-.138-1.961-.413-2.349s-.618-.581-1.028-.581c-.404,0-.726.171-.967.513-.303.437-.454,1.242-.454,2.417Z"/>
                  <path class="cls-18" d="M85.326,383.125l.923-.078c.068.449.227.787.476,1.014.249.226.549.339.901.339.423,0,.781-.159,1.074-.479s.439-.742.439-1.27c0-.501-.141-.896-.422-1.187s-.65-.435-1.106-.435c-.283,0-.539.064-.767.192-.228.129-.407.296-.537.501l-.825-.107.693-3.677h3.56v.84h-2.856l-.386,1.924c.43-.3.88-.449,1.353-.449.625,0,1.152.217,1.582.649s.645.989.645,1.67c0,.647-.189,1.208-.566,1.68-.459.579-1.085.869-1.88.869-.651,0-1.183-.183-1.594-.547s-.647-.848-.706-1.45Z"/>
                </g>
              </g>
            </g>
            <g class="cls-15">
              <g class="cls-15">
                <g class="cls-15">
                  <path class="cls-18" d="M195.604,387.623v-2.66c-.83-.237-1.438-.596-1.825-1.076-.388-.48-.581-1.062-.581-1.748,0-.694.219-1.277.657-1.749.438-.472,1.021-.744,1.749-.815v-.629h.92v.629c.673.08,1.208.31,1.606.688s.652.886.762,1.521l-1.606.209c-.097-.499-.351-.838-.762-1.016v2.482c1.016.274,1.708.631,2.076,1.069.368.438.552.999.552,1.685,0,.767-.231,1.412-.695,1.937-.463.524-1.107.847-1.933.965v1.187h-.92v-1.154c-.732-.09-1.327-.362-1.784-.819s-.749-1.103-.876-1.937l1.657-.178c.068.339.195.631.381.877.186.245.394.423.622.533ZM195.604,380.957c-.25.085-.449.229-.597.432s-.222.428-.222.674c0,.224.068.433.203.625s.341.348.616.467v-2.197ZM196.524,387.711c.317-.059.576-.206.774-.44.199-.235.298-.511.298-.829,0-.283-.083-.527-.25-.732-.167-.205-.441-.363-.822-.473v2.475Z"/>
                  <path class="cls-18" d="M203.78,389v-1.873h-3.809v-1.561l4.037-5.91h1.498v5.903h1.155v1.567h-1.155v1.873h-1.727ZM203.78,385.56v-3.181l-2.139,3.181h2.139Z"/>
                  <path class="cls-18" d="M210.527,379.656c.901,0,1.606.321,2.114.965.605.762.908,2.025.908,3.789s-.305,3.026-.914,3.797c-.503.635-1.206.951-2.107.951s-1.636-.348-2.19-1.044-.832-1.937-.832-3.723c0-1.752.305-3.013.914-3.783.503-.635,1.206-.952,2.107-.952ZM210.527,381.135c-.216,0-.408.069-.578.207s-.3.384-.394.739c-.123.461-.184,1.237-.184,2.329s.055,1.843.165,2.251.249.68.416.815c.167.136.358.203.574.203s.408-.068.578-.206.3-.384.394-.739c.123-.457.184-1.232.184-2.324s-.055-1.842-.165-2.25-.249-.681-.416-.818c-.167-.138-.358-.207-.574-.207Z"/>
                </g>
              </g>
            </g>
          </g>
        </g>
        <g>
          <g>
            <rect id="x" x="30" y="413" width="204" height="40" rx="5" ry="5"/>
            <rect id="x1" class="cls-19" x="30" y="413" width="204" height="40" rx="5" ry="5"/>
          </g>
          <g>
            <g class="cls-15">
              <g class="cls-15">
                <g class="cls-15">
                  <path class="cls-18" d="M46.933,433v-7.158h.947v7.158h-.947Z"/>
                  <path class="cls-18" d="M51.356,432.214l.127.776c-.248.052-.469.078-.664.078-.319,0-.566-.051-.742-.151s-.299-.233-.371-.397c-.072-.165-.107-.511-.107-1.038v-2.983h-.645v-.684h.645v-1.284l.874-.527v1.812h.884v.684h-.884v3.032c0,.251.016.412.046.483s.082.129.151.171.17.063.3.063c.098,0,.226-.012.386-.034Z"/>
                  <path class="cls-18" d="M55.766,431.33l.908.112c-.143.53-.409.942-.796,1.235s-.882.439-1.484.439c-.758,0-1.36-.233-1.804-.701-.444-.467-.667-1.122-.667-1.965,0-.872.225-1.55.674-2.031s1.032-.723,1.748-.723c.693,0,1.26.236,1.699.708s.659,1.136.659,1.992c0,.052-.001.13-.005.234h-3.867c.033.569.194,1.006.483,1.309s.651.454,1.084.454c.322,0,.597-.085.825-.254s.409-.439.542-.811ZM52.88,429.909h2.896c-.039-.437-.15-.764-.332-.981-.28-.339-.643-.508-1.089-.508-.404,0-.743.135-1.018.405s-.427.632-.457,1.084Z"/>
                  <path class="cls-18" d="M57.777,433v-5.186h.786v.728c.163-.254.379-.458.649-.612.27-.155.578-.232.923-.232.384,0,.699.08.945.239s.419.383.52.669c.41-.605.944-.908,1.602-.908.514,0,.91.143,1.187.428.277.284.415.723.415,1.315v3.56h-.874v-3.267c0-.352-.028-.604-.085-.759-.057-.155-.16-.279-.31-.374s-.326-.142-.527-.142c-.365,0-.667.121-.908.363-.241.243-.361.631-.361,1.165v3.013h-.879v-3.369c0-.391-.072-.684-.215-.879s-.377-.293-.703-.293c-.248,0-.476.065-.686.195s-.362.32-.457.571-.142.612-.142,1.084v2.69h-.879Z"/>
                  <path class="cls-18" d="M68.729,433.122l.425-2.08h-.825v-.728h.972l.361-1.772h-1.333v-.728h1.479l.425-2.095h.732l-.425,2.095h1.538l.425-2.095h.737l-.425,2.095h.845v.728h-.991l-.366,1.772h1.357v.728h-1.504l-.425,2.08h-.732l.42-2.08h-1.533l-.425,2.08h-.732ZM70.033,430.314h1.533l.366-1.772h-1.538l-.361,1.772Z"/>
                  <path class="cls-18" d="M74.203,429.47c0-.847.087-1.527.261-2.044.174-.516.433-.913.776-1.193s.775-.42,1.296-.42c.384,0,.721.077,1.011.232.29.154.529.377.718.668.189.292.337.646.444,1.064.107.419.161.982.161,1.692,0,.84-.086,1.518-.259,2.034-.172.516-.431.914-.774,1.195-.343.282-.777.423-1.301.423-.69,0-1.232-.247-1.626-.742-.472-.596-.708-1.565-.708-2.91ZM75.106,429.47c0,1.175.138,1.957.413,2.347.275.389.614.583,1.018.583s.743-.195,1.018-.586.413-1.172.413-2.344c0-1.179-.138-1.961-.413-2.349s-.618-.581-1.028-.581c-.404,0-.726.171-.967.513-.303.437-.454,1.242-.454,2.417Z"/>
                  <path class="cls-18" d="M79.765,429.47c0-.847.087-1.527.261-2.044.174-.516.433-.913.776-1.193s.775-.42,1.296-.42c.384,0,.721.077,1.011.232.29.154.529.377.718.668.189.292.337.646.444,1.064.107.419.161.982.161,1.692,0,.84-.086,1.518-.259,2.034-.172.516-.431.914-.774,1.195-.343.282-.777.423-1.301.423-.69,0-1.232-.247-1.626-.742-.472-.596-.708-1.565-.708-2.91ZM80.668,429.47c0,1.175.138,1.957.413,2.347.275.389.614.583,1.018.583s.743-.195,1.018-.586.413-1.172.413-2.344c0-1.179-.138-1.961-.413-2.349s-.618-.581-1.028-.581c-.404,0-.726.171-.967.513-.303.437-.454,1.242-.454,2.417Z"/>
                  <path class="cls-18" d="M89.887,427.595l-.874.068c-.078-.345-.189-.596-.332-.752-.238-.251-.531-.376-.879-.376-.28,0-.526.078-.737.234-.277.202-.495.496-.654.884s-.243.939-.249,1.655c.211-.322.47-.562.776-.718s.626-.234.962-.234c.586,0,1.085.216,1.497.647.412.431.618.988.618,1.672,0,.449-.097.867-.291,1.252-.194.387-.46.682-.798.887s-.723.308-1.152.308c-.732,0-1.33-.27-1.792-.808-.462-.539-.693-1.427-.693-2.664,0-1.384.255-2.39.767-3.018.446-.547,1.046-.82,1.802-.82.563,0,1.024.158,1.384.474s.575.752.647,1.309ZM86.298,430.681c0,.303.064.593.193.869s.309.487.54.632c.231.146.474.218.728.218.371,0,.69-.149.957-.449s.4-.706.4-1.221c0-.495-.132-.885-.396-1.169-.264-.285-.596-.428-.996-.428-.397,0-.734.143-1.011.428-.277.284-.415.658-.415,1.12Z"/>
                </g>
              </g>
            </g>
            <g class="cls-15">
              <g class="cls-15">
                <g class="cls-15">
                  <path class="cls-18" d="M178.604,435.623v-2.66c-.83-.237-1.438-.596-1.825-1.076-.388-.48-.581-1.062-.581-1.748,0-.694.219-1.277.657-1.749.438-.472,1.021-.744,1.749-.815v-.629h.92v.629c.673.08,1.208.31,1.606.688s.652.886.762,1.521l-1.606.209c-.097-.499-.351-.838-.762-1.016v2.482c1.016.274,1.708.631,2.076,1.069.368.438.552.999.552,1.685,0,.767-.231,1.412-.695,1.937-.463.524-1.107.847-1.933.965v1.187h-.92v-1.154c-.732-.09-1.327-.362-1.784-.819s-.749-1.103-.876-1.937l1.657-.178c.068.339.195.631.381.877.186.245.394.423.622.533ZM178.604,428.957c-.25.085-.449.229-.597.432s-.222.428-.222.674c0,.224.068.433.203.625s.341.348.616.467v-2.197ZM179.524,435.711c.317-.059.576-.206.774-.44.199-.235.298-.511.298-.829,0-.283-.083-.527-.25-.732-.167-.205-.441-.363-.822-.473v2.475Z"/>
                  <path class="cls-18" d="M189.306,435.344v1.656h-6.252c.068-.626.271-1.22.609-1.78s1.007-1.305,2.006-2.231c.804-.749,1.297-1.257,1.479-1.523.246-.368.368-.732.368-1.092,0-.397-.107-.703-.32-.917-.214-.214-.509-.321-.886-.321-.373,0-.668.112-.889.337s-.347.597-.381,1.117l-1.777-.178c.106-.981.438-1.687.997-2.114.559-.427,1.257-.641,2.095-.641.918,0,1.64.248,2.165.742.525.496.787,1.111.787,1.848,0,.419-.075.817-.226,1.196-.15.379-.388.775-.714,1.19-.216.275-.605.671-1.168,1.188-.563.516-.919.858-1.069,1.027-.15.17-.272.335-.365.496h3.542Z"/>
                  <path class="cls-18" d="M190.538,434.607l1.777-.185c.051.402.201.721.451.955.25.235.538.353.863.353.373,0,.688-.151.946-.454s.387-.759.387-1.368c0-.57-.128-.999-.384-1.285-.256-.285-.589-.428-1-.428-.512,0-.971.226-1.377.679l-1.447-.21.914-4.843h4.716v1.669h-3.364l-.279,1.581c.398-.199.804-.298,1.219-.298.792,0,1.462.287,2.012.863.55.575.825,1.322.825,2.24,0,.766-.222,1.449-.667,2.051-.605.82-1.445,1.23-2.52,1.23-.859,0-1.56-.23-2.101-.691s-.865-1.081-.971-1.859Z"/>
                  <path class="cls-18" d="M203.785,429.973l-1.727.191c-.042-.355-.152-.618-.33-.787-.178-.17-.408-.254-.692-.254-.376,0-.695.169-.955.508-.261.338-.424,1.043-.492,2.113.444-.524.997-.787,1.657-.787.745,0,1.383.283,1.914.851.531.567.797,1.299.797,2.196,0,.952-.279,1.716-.838,2.291-.559.576-1.276.863-2.152.863-.939,0-1.712-.364-2.317-1.095-.605-.729-.908-1.927-.908-3.589,0-1.706.315-2.936.946-3.688s1.449-1.13,2.457-1.13c.707,0,1.292.198,1.755.594.463.396.758.97.885,1.723ZM199.742,433.864c0,.58.133,1.027.4,1.343s.571.473.914.473c.33,0,.605-.129.825-.387.22-.259.33-.682.33-1.27,0-.605-.119-1.049-.355-1.33s-.533-.422-.889-.422c-.343,0-.633.134-.87.402s-.355.666-.355,1.19Z"/>
                  <path class="cls-18" d="M211.015,429.973l-1.727.191c-.042-.355-.152-.618-.33-.787-.178-.17-.408-.254-.692-.254-.376,0-.695.169-.955.508-.261.338-.424,1.043-.492,2.113.444-.524.997-.787,1.657-.787.745,0,1.383.283,1.914.851.531.567.797,1.299.797,2.196,0,.952-.279,1.716-.838,2.291-.559.576-1.276.863-2.152.863-.939,0-1.712-.364-2.317-1.095-.605-.729-.908-1.927-.908-3.589,0-1.706.315-2.936.946-3.688s1.449-1.13,2.457-1.13c.707,0,1.292.198,1.755.594.463.396.758.97.885,1.723ZM206.972,433.864c0,.58.133,1.027.4,1.343s.571.473.914.473c.33,0,.605-.129.825-.387.22-.259.33-.682.33-1.27,0-.605-.119-1.049-.355-1.33s-.533-.422-.889-.422c-.343,0-.633.134-.87.402s-.355.666-.355,1.19Z"/>
                </g>
              </g>
            </g>
          </g>
        </g>
      </g>
      <path class="cls-5" d="M33.022,11.4h197.156c9.898,0,17.922,8.024,17.922,17.922v95.47c0,.335-.272.607-.607.607H15.1V29.322c0-9.898,8.024-17.922,17.922-17.922Z"/>
      <g>
        <g>
          <rect id="B" x="30" y="93" width="204" height="56" rx="5" ry="5"/>
          <rect id="B1" class="cls-19" x="30" y="93" width="204" height="56" rx="5" ry="5"/>
        </g>
        <g class="cls-15">
          <g class="cls-15">
            <g class="cls-15">
              <path class="cls-18" d="M48.793,121v-6.313h-2.358v-.845h5.674v.845h-2.368v6.313h-.947Z"/>
              <path class="cls-18" d="M51.532,118.407c0-.96.267-1.672.801-2.134.445-.384.989-.576,1.631-.576.713,0,1.295.233,1.748.701.452.467.679,1.112.679,1.936,0,.667-.101,1.192-.301,1.574-.2.383-.491.68-.874.892-.382.212-.8.317-1.252.317-.727,0-1.312-.232-1.761-.698-.447-.466-.671-1.136-.671-2.012ZM52.436,118.407c0,.664.145,1.161.435,1.491.289.331.654.496,1.094.496.436,0,.799-.166,1.089-.498.289-.332.435-.838.435-1.519,0-.642-.146-1.127-.438-1.458-.291-.33-.653-.495-1.086-.495-.439,0-.805.164-1.094.493-.29.329-.435.825-.435,1.489Z"/>
              <path class="cls-18" d="M59.34,120.214l.127.776c-.248.052-.469.078-.664.078-.319,0-.566-.051-.742-.151s-.3-.233-.371-.397c-.072-.165-.107-.511-.107-1.038v-2.983h-.645v-.684h.645v-1.284l.874-.527v1.812h.884v.684h-.884v3.032c0,.251.016.412.046.483.031.071.082.129.151.171.07.042.17.063.301.063.098,0,.226-.012.386-.034Z"/>
              <path class="cls-18" d="M63.583,120.36c-.326.276-.639.472-.94.586-.301.114-.624.171-.969.171-.57,0-1.008-.139-1.313-.418-.307-.277-.459-.634-.459-1.066,0-.254.058-.486.173-.695.116-.211.268-.379.454-.506.188-.127.398-.223.633-.288.172-.046.433-.09.781-.132.709-.085,1.231-.186,1.567-.303.003-.12.005-.197.005-.229,0-.358-.083-.61-.249-.757-.225-.198-.559-.298-1.001-.298-.414,0-.719.072-.916.218-.196.145-.343.4-.437.769l-.859-.117c.078-.368.206-.665.386-.892.179-.226.438-.4.776-.521.338-.123.73-.184,1.177-.184.442,0,.802.052,1.079.156.276.104.479.235.61.393.13.158.221.357.273.599.029.149.044.42.044.811v1.172c0,.817.019,1.334.056,1.55.038.217.111.425.223.623h-.918c-.092-.183-.15-.396-.176-.64ZM63.51,118.397c-.319.13-.798.241-1.436.332-.361.052-.617.11-.767.176-.15.065-.266.16-.347.286-.082.125-.122.264-.122.417,0,.234.089.43.266.586.178.156.438.234.779.234.338,0,.64-.074.903-.222.264-.148.457-.352.581-.608.094-.198.142-.491.142-.879v-.322Z"/>
              <path class="cls-18" d="M65.741,121v-7.158h.879v7.158h-.879Z"/>
              <path class="cls-18" d="M70.761,122.987v-7.173h.801v.674c.188-.264.401-.461.64-.594.237-.131.525-.197.864-.197.442,0,.833.114,1.172.342.338.228.594.549.767.965.172.414.259.869.259,1.364,0,.53-.096,1.009-.286,1.433-.19.426-.467.751-.83.977-.362.227-.744.34-1.145.34-.293,0-.556-.062-.789-.186-.232-.124-.424-.28-.573-.469v2.524h-.879ZM71.557,118.437c0,.667.135,1.16.405,1.479.27.319.597.479.981.479.391,0,.725-.165,1.003-.496.278-.33.418-.842.418-1.535,0-.661-.136-1.155-.408-1.484-.271-.329-.597-.493-.974-.493-.375,0-.706.175-.994.524-.288.351-.432.859-.432,1.526Z"/>
              <path class="cls-18" d="M79.706,120.36c-.326.276-.639.472-.94.586-.301.114-.624.171-.969.171-.57,0-1.008-.139-1.313-.418-.307-.277-.459-.634-.459-1.066,0-.254.058-.486.173-.695.116-.211.268-.379.454-.506.188-.127.398-.223.633-.288.172-.046.433-.09.781-.132.709-.085,1.231-.186,1.567-.303.003-.12.005-.197.005-.229,0-.358-.083-.61-.249-.757-.225-.198-.559-.298-1.001-.298-.414,0-.719.072-.916.218-.196.145-.343.4-.437.769l-.859-.117c.078-.368.206-.665.386-.892.179-.226.438-.4.776-.521.338-.123.73-.184,1.177-.184.442,0,.802.052,1.079.156.276.104.479.235.61.393.13.158.221.357.273.599.029.149.044.42.044.811v1.172c0,.817.019,1.334.056,1.55.038.217.111.425.223.623h-.918c-.092-.183-.15-.396-.176-.64ZM79.633,118.397c-.319.13-.798.241-1.436.332-.361.052-.617.11-.767.176-.15.065-.266.16-.347.286-.082.125-.122.264-.122.417,0,.234.089.43.266.586.178.156.438.234.779.234.338,0,.64-.074.903-.222.264-.148.457-.352.581-.608.094-.198.142-.491.142-.879v-.322Z"/>
              <path class="cls-18" d="M81.845,122.997l-.098-.825c.191.052.359.078.503.078.195,0,.352-.032.469-.098s.213-.156.288-.273c.055-.088.145-.306.269-.654.016-.049.042-.12.078-.215l-1.968-5.195h.947l1.079,3.003c.14.381.265.781.376,1.201.101-.403.221-.798.361-1.182l1.108-3.022h.879l-1.973,5.273c-.212.569-.376.962-.493,1.177-.156.29-.336.502-.537.638-.202.135-.443.202-.723.202-.17,0-.358-.036-.566-.107Z"/>
              <path class="cls-18" d="M86.884,121v-5.186h.786v.728c.162-.254.379-.458.649-.612.27-.155.577-.232.923-.232.384,0,.699.08.944.239.246.159.419.383.521.669.41-.605.943-.908,1.602-.908.514,0,.909.143,1.187.428.276.284.415.723.415,1.315v3.56h-.874v-3.267c0-.352-.028-.604-.086-.759-.057-.155-.16-.279-.31-.374-.15-.095-.326-.142-.527-.142-.365,0-.668.121-.908.363-.241.243-.361.631-.361,1.165v3.013h-.879v-3.369c0-.391-.072-.684-.215-.879-.144-.195-.378-.293-.703-.293-.248,0-.477.065-.687.195s-.362.32-.456.571c-.095.251-.142.612-.142,1.084v2.69h-.879Z"/>
              <path class="cls-18" d="M98.764,119.33l.908.112c-.144.53-.409.942-.796,1.235-.388.293-.883.439-1.484.439-.759,0-1.36-.233-1.805-.701-.444-.467-.666-1.122-.666-1.965,0-.872.225-1.55.674-2.031s1.031-.723,1.748-.723c.693,0,1.26.236,1.699.708s.659,1.136.659,1.992c0,.052-.002.13-.005.234h-3.867c.032.569.193,1.006.483,1.309.289.303.65.454,1.084.454.322,0,.597-.085.825-.254.228-.169.408-.439.542-.811ZM95.878,117.909h2.896c-.039-.437-.15-.764-.332-.981-.28-.339-.644-.508-1.089-.508-.404,0-.743.135-1.019.405-.274.271-.427.632-.456,1.084Z"/>
              <path class="cls-18" d="M100.775,121v-5.186h.791v.737c.381-.569.931-.854,1.65-.854.312,0,.6.057.861.168.263.113.458.26.589.442.13.183.221.398.273.649.032.163.049.447.049.854v3.188h-.879v-3.154c0-.358-.034-.626-.103-.803-.068-.178-.189-.319-.364-.426-.174-.105-.378-.158-.612-.158-.375,0-.697.119-.97.356-.271.237-.407.688-.407,1.353v2.832h-.879Z"/>
              <path class="cls-18" d="M108.256,120.214l.127.776c-.248.052-.469.078-.664.078-.319,0-.566-.051-.742-.151s-.3-.233-.371-.397c-.072-.165-.107-.511-.107-1.038v-2.983h-.645v-.684h.645v-1.284l.874-.527v1.812h.884v.684h-.884v3.032c0,.251.016.412.046.483.031.071.082.129.151.171.07.042.17.063.301.063.098,0,.226-.012.386-.034Z"/>
            </g>
          </g>
        </g>
        <g class="cls-15">
          <g class="cls-15">
            <g class="cls-15">
              <path class="cls-1" d="M158.075,125.881v-4.092c-1.275-.364-2.212-.916-2.808-1.655s-.894-1.636-.894-2.69c0-1.067.337-1.965,1.011-2.69s1.571-1.145,2.69-1.255v-.967h1.416v.967c1.035.124,1.859.477,2.471,1.06.612.583,1.003,1.362,1.172,2.339l-2.471.322c-.149-.769-.54-1.289-1.172-1.562v3.818c1.562.423,2.627.972,3.193,1.646s.85,1.538.85,2.593c0,1.179-.356,2.171-1.069,2.979s-1.704,1.302-2.974,1.484v1.826h-1.416v-1.777c-1.126-.137-2.041-.557-2.744-1.26s-1.152-1.696-1.348-2.979l2.549-.273c.104.521.3.97.586,1.348.287.378.605.651.957.82ZM158.075,115.627c-.384.13-.689.352-.918.664-.228.312-.342.657-.342,1.035,0,.345.104.666.312.962.209.296.524.535.947.718v-3.379ZM159.491,126.018c.488-.091.886-.317,1.191-.679.307-.361.459-.786.459-1.274,0-.437-.128-.812-.386-1.128-.257-.315-.679-.559-1.265-.728v3.809Z"/>
              <path class="cls-1" d="M165.331,124.689l2.656-.293c.065.54.234.94.508,1.201s.635.391,1.084.391c.566,0,1.049-.261,1.445-.781.397-.521.651-1.602.762-3.242-.689.801-1.553,1.201-2.588,1.201-1.126,0-2.098-.435-2.915-1.304-.816-.869-1.226-2-1.226-3.394,0-1.452.432-2.622,1.294-3.511.863-.889,1.962-1.333,3.296-1.333,1.452,0,2.644.562,3.574,1.685.932,1.123,1.396,2.971,1.396,5.542,0,2.617-.484,4.505-1.455,5.664-.97,1.159-2.232,1.738-3.789,1.738-1.119,0-2.024-.298-2.715-.894-.689-.596-1.133-1.486-1.328-2.671ZM171.542,118.693c0-.886-.203-1.572-.61-2.061-.406-.488-.877-.732-1.411-.732-.508,0-.929.2-1.265.601-.335.4-.503,1.057-.503,1.968,0,.925.183,1.604.547,2.036.365.433.82.649,1.367.649.527,0,.972-.208,1.333-.625s.542-1.028.542-1.836Z"/>
              <path class="cls-1" d="M185.663,125.451v2.549h-9.619c.104-.964.417-1.877.938-2.739.521-.862,1.55-2.007,3.086-3.433,1.237-1.152,1.996-1.934,2.275-2.344.378-.566.566-1.126.566-1.68,0-.612-.164-1.082-.493-1.411-.328-.329-.782-.493-1.362-.493-.572,0-1.028.173-1.367.518-.338.345-.533.918-.586,1.719l-2.734-.273c.163-1.511.674-2.595,1.533-3.252s1.934-.986,3.223-.986c1.413,0,2.523.381,3.33,1.143.808.762,1.211,1.709,1.211,2.842,0,.645-.115,1.258-.347,1.841-.23.583-.597,1.193-1.099,1.831-.332.423-.931,1.032-1.797,1.826-.865.794-1.414,1.321-1.646,1.582-.23.261-.418.515-.562.762h5.449Z"/>
              <path class="cls-1" d="M192.157,113.625c1.387,0,2.471.495,3.252,1.484.932,1.172,1.396,3.115,1.396,5.83s-.469,4.655-1.406,5.84c-.774.977-1.855,1.465-3.242,1.465s-2.516-.535-3.369-1.606c-.853-1.071-1.279-2.98-1.279-5.728,0-2.695.469-4.636,1.406-5.82.775-.977,1.855-1.465,3.242-1.465ZM192.157,115.9c-.332,0-.628.105-.889.317-.26.212-.462.591-.605,1.138-.188.71-.283,1.904-.283,3.584s.085,2.834.254,3.462c.17.628.383,1.047.64,1.255.258.208.552.312.884.312s.629-.105.889-.317c.261-.212.463-.591.605-1.138.189-.703.283-1.895.283-3.574s-.084-2.834-.254-3.462c-.169-.628-.382-1.048-.64-1.26-.257-.212-.552-.317-.884-.317Z"/>
              <path class="cls-1" d="M204.022,128v-2.881h-5.859v-2.402l6.211-9.092h2.305v9.082h1.777v2.412h-1.777v2.881h-2.656ZM204.022,122.707v-4.893l-3.291,4.893h3.291Z"/>
            </g>
          </g>
        </g>
      </g>
      <g>
        <circle class="cls-20" cx="101.1" cy="49.2" r="1.9"/>
        <circle class="cls-20" cx="105.6" cy="53.6" r="1.9"/>
        <circle class="cls-20" cx="110" cy="58.1" r="1.9"/>
        <circle class="cls-20" cx="96.6" cy="53.6" r="1.9"/>
        <circle class="cls-17" cx="101.1" cy="58.1" r="1.9"/>
        <circle class="cls-17" cx="105.6" cy="62.6" r="1.9"/>
        <circle class="cls-20" cx="92.2" cy="58.1" r="1.9"/>
        <circle class="cls-17" cx="96.6" cy="62.6" r="1.9"/>
        <circle class="cls-16" cx="101.1" cy="67" r="1.9"/>
      </g>
    </g>
  </g>
</svg>